<svg id="Layer_2" data-name="Layer 2" xmlns="http://www.w3.org/2000/svg" xmlns:xlink="http://www.w3.org/1999/xlink" width="50" height="50" viewBox="0 0 50 50"><defs><style>.cls-1,.cls-6,.cls-9{fill:#263238;}.cls-12,.cls-2,.cls-5{fill:#fff;}.cls-3{fill:#43d854;}.cls-4{fill:#8030e3;}.cls-5,.cls-6{clip-rule:evenodd;}.cls-7{clip-path:url(#clip-path);}.cls-8{clip-path:url(#clip-path-2);}.cls-12,.cls-9{fill-rule:evenodd;}.cls-10{clip-path:url(#clip-path-3);}.cls-11{clip-path:url(#clip-path-4);}.cls-13{clip-path:url(#clip-path-5);}.cls-14{clip-path:url(#clip-path-6);}.cls-15{clip-path:url(#clip-path-7);}.cls-16{clip-path:url(#clip-path-8);}.cls-17{clip-path:url(#clip-path-9);}.cls-18{clip-path:url(#clip-path-10);}.cls-19{clip-path:url(#clip-path-11);}.cls-20{clip-path:url(#clip-path-12);}.cls-21{clip-path:url(#clip-path-13);}.cls-22{clip-path:url(#clip-path-14);}.cls-23{clip-path:url(#clip-path-15);}.cls-24{clip-path:url(#clip-path-16);}.cls-25{clip-path:url(#clip-path-17);}.cls-26{clip-path:url(#clip-path-18);}.cls-27{clip-path:url(#clip-path-19);}.cls-28{clip-path:url(#clip-path-20);}.cls-29{clip-path:url(#clip-path-21);}.cls-30{clip-path:url(#clip-path-22);}.cls-31{clip-path:url(#clip-path-23);}.cls-32{clip-path:url(#clip-path-24);}.cls-33{clip-path:url(#clip-path-25);}.cls-34{clip-path:url(#clip-path-26);}.cls-35{clip-path:url(#clip-path-27);}.cls-36{clip-path:url(#clip-path-28);}</style><clipPath id="clip-path"><circle class="cls-1" cx="157.14" cy="230.71" r="12.21"/></clipPath><clipPath id="clip-path-2"><circle class="cls-2" cx="157.05" cy="230.69" r="9.46"/></clipPath><clipPath id="clip-path-3"><path class="cls-6" d="M37.46,37.49s1.74-10.62-12.4-10.62S12.7,37.49,12.7,37.49Z"/></clipPath><clipPath id="clip-path-4"><rect class="cls-1" x="-513.5" y="-1036" width="1054.02" height="2554.45"/></clipPath><clipPath id="clip-path-5"><polygon class="cls-5" points="158.08 37.73 158.08 12.55 176.73 25.14 158.08 37.73"/></clipPath><clipPath id="clip-path-6"><circle class="cls-1" cx="297.05" cy="25" r="2.77"/></clipPath><clipPath id="clip-path-7"><circle class="cls-1" cx="306.74" cy="25" r="2.77"/></clipPath><clipPath id="clip-path-8"><circle class="cls-1" cx="287.35" cy="25" r="2.77"/></clipPath><clipPath id="clip-path-9"><circle class="cls-1" cx="297.16" cy="230.72" r="12.21"/></clipPath><clipPath id="clip-path-10"><circle class="cls-2" cx="297.12" cy="230.75" r="9.46"/></clipPath><clipPath id="clip-path-11"><circle class="cls-2" cx="158.64" cy="151.79" r="12.21"/></clipPath><clipPath id="clip-path-12"><circle class="cls-3" cx="158.61" cy="151.82" r="10.24"/></clipPath><clipPath id="clip-path-13"><circle class="cls-2" cx="295.22" cy="151.91" r="12.21"/></clipPath><clipPath id="clip-path-14"><circle class="cls-4" cx="295.19" cy="151.94" r="10.24"/></clipPath><clipPath id="clip-path-15"><path class="cls-5" d="M226.17,153.23l-12.52-11h25Zm-12,7.2c-.3,0-.57-.2-.57-.42V145.39l10.81,9.22c1.62,1.33,1.71,1.31,3.41,0l10.81-9.22V160c0,.22-.26.42-.57.42Z"/></clipPath><clipPath id="clip-path-16"><polygon class="cls-6" points="432.82 -62.82 441.76 -71.88 444 -60.73 432.82 -62.82"/></clipPath><clipPath id="clip-path-17"><polygon class="cls-6" points="432.82 -116.93 441.76 -125.99 444 -114.84 432.82 -116.93"/></clipPath><clipPath id="clip-path-18"><path class="cls-6" d="M37.43,89S39.18,78.41,25,78.41,12.57,89,12.57,89Z"/></clipPath><clipPath id="clip-path-19"><polygon class="cls-6" points="158.15 88.99 158.15 63.99 176.66 76.49 158.15 88.99"/></clipPath><clipPath id="clip-path-20"><circle class="cls-1" cx="505.99" cy="-59.66" r="12.29"/></clipPath><clipPath id="clip-path-21"><circle class="cls-1" cx="505.99" cy="-113.76" r="12.29"/></clipPath><clipPath id="clip-path-22"><circle class="cls-1" cx="296.89" cy="76.49" r="2.78"/></clipPath><clipPath id="clip-path-23"><circle class="cls-1" cx="306.61" cy="76.49" r="2.78"/></clipPath><clipPath id="clip-path-24"><circle class="cls-1" cx="287.16" cy="76.49" r="2.78"/></clipPath><clipPath id="clip-path-25"><circle class="cls-1" cx="157.22" cy="284.64" r="12.29"/></clipPath><clipPath id="clip-path-26"><circle class="cls-2" cx="157.13" cy="284.62" r="9.53"/></clipPath><clipPath id="clip-path-27"><circle class="cls-1" cx="297.09" cy="284.64" r="12.29"/></clipPath><clipPath id="clip-path-28"><circle class="cls-2" cx="297.06" cy="284.67" r="9.53"/></clipPath></defs><title>acatar-icongraphy</title><g id="Layer_1" data-name="Layer 1"><circle class="cls-1" cx="157.14" cy="230.71" r="12.21"/><g class="cls-7"><rect class="cls-1" x="-308.36" y="-1417.6" width="908.1" height="2200.8"/></g><circle class="cls-2" cx="157.05" cy="230.69" r="9.46"/><g class="cls-8"><rect class="cls-2" x="-203.77" y="-1046.96" width="703.89" height="1705.9"/></g><path class="cls-1" d="M25,1A24,24,0,1,1,1,25,24,24,0,0,1,25,1m0-1A25,25,0,1,0,50,25,25,25,0,0,0,25,0Z"/><path class="cls-9" d="M37.46,37.49s1.74-10.62-12.4-10.62S12.7,37.49,12.7,37.49Z"/><g class="cls-10"><rect class="cls-1" x="-513.5" y="-1036" width="1054.02" height="2554.45"/><g class="cls-11"><rect class="cls-1" x="3.77" y="18.02" width="42.61" height="28.33"/></g></g><ellipse class="cls-1" cx="25.08" cy="18.62" rx="6.35" ry="6.23"/><polygon class="cls-12" points="158.08 37.73 158.08 12.55 176.73 25.14 158.08 37.73"/><g class="cls-13"><rect class="cls-2" x="-404.55" y="-1207" width="1109.65" height="2689.28"/></g><circle class="cls-1" cx="297.05" cy="25" r="2.77"/><g class="cls-14"><rect class="cls-1" x="-125.46" y="-1056.88" width="824.23" height="1997.54"/></g><circle class="cls-1" cx="306.74" cy="25" r="2.77"/><g class="cls-15"><rect class="cls-1" x="-125.46" y="-1056.88" width="824.23" height="1997.54"/></g><circle class="cls-1" cx="287.35" cy="25" r="2.77"/><g class="cls-16"><rect class="cls-1" x="-125.46" y="-1056.88" width="824.23" height="1997.54"/></g><circle class="cls-1" cx="297.16" cy="230.72" r="12.21"/><g class="cls-17"><rect class="cls-1" x="-168.34" y="-1417.59" width="908.1" height="2200.8"/></g><circle class="cls-2" cx="297.12" cy="230.75" r="9.46"/><g class="cls-18"><rect class="cls-2" x="-63.7" y="-1046.9" width="703.89" height="1705.9"/></g><circle class="cls-2" cx="158.64" cy="151.79" r="12.21"/><g class="cls-19"><rect class="cls-2" x="-306.85" y="-1496.52" width="908.1" height="2200.8"/></g><circle class="cls-3" cx="158.61" cy="151.82" r="10.24"/><g class="cls-20"><rect class="cls-3" x="-231.72" y="-1230.31" width="761.45" height="1845.39"/></g><circle class="cls-2" cx="295.22" cy="151.91" r="12.21"/><g class="cls-21"><rect class="cls-2" x="-170.27" y="-1496.4" width="908.1" height="2200.8"/></g><circle class="cls-4" cx="295.19" cy="151.94" r="10.24"/><g class="cls-22"><rect class="cls-4" x="-95.13" y="-1230.19" width="761.45" height="1845.4"/></g><path class="cls-12" d="M226.17,153.23l-12.52-11h25Zm-12,7.2c-.3,0-.57-.2-.57-.42V145.39l10.81,9.22c1.62,1.33,1.71,1.31,3.41,0l10.81-9.22V160c0,.22-.26.42-.57.42Z"/><g class="cls-23"><rect class="cls-2" x="-199.99" y="-268.59" width="831.47" height="2015.09"/></g><polygon class="cls-9" points="432.82 -62.82 441.76 -71.88 444 -60.73 432.82 -62.82"/><g class="cls-24"><rect class="cls-1" x="-284.85" y="-309.99" width="1358.83" height="560.68" transform="translate(138.57 272.05) rotate(-45.39)"/></g><polygon class="cls-9" points="432.82 -116.93 441.76 -125.99 444 -114.84 432.82 -116.93"/><g class="cls-25"><rect class="cls-1" x="-284.85" y="-364.1" width="1358.83" height="560.68" transform="translate(177.08 255.94) rotate(-45.39)"/></g><path class="cls-9" d="M37.43,89S39.18,78.41,25,78.41,12.57,89,12.57,89Z"/><g class="cls-26"><rect class="cls-1" x="-515.82" y="-980.28" width="1058.43" height="2544.4"/></g><polygon class="cls-9" points="158.15 88.99 158.15 63.99 176.66 76.49 158.15 88.99"/><g class="cls-27"><rect class="cls-1" x="-400.36" y="-1146.61" width="1101.52" height="2669.57"/></g><circle class="cls-1" cx="505.99" cy="-59.66" r="12.29"/><g class="cls-28"><rect class="cls-1" x="37.4" y="-1718.92" width="914.13" height="2215.42"/></g><circle class="cls-1" cx="505.99" cy="-113.76" r="12.29"/><g class="cls-29"><rect class="cls-1" x="37.4" y="-1773.02" width="914.13" height="2215.42"/></g><circle class="cls-1" cx="296.89" cy="76.49" r="2.78"/><g class="cls-30"><rect class="cls-1" x="-126.73" y="-1008.23" width="826.39" height="2002.78"/></g><circle class="cls-1" cx="306.61" cy="76.49" r="2.78"/><g class="cls-31"><rect class="cls-1" x="-126.73" y="-1008.23" width="826.39" height="2002.78"/></g><circle class="cls-1" cx="287.16" cy="76.49" r="2.78"/><g class="cls-32"><rect class="cls-1" x="-126.73" y="-1008.23" width="826.39" height="2002.78"/></g><circle class="cls-1" cx="157.22" cy="284.64" r="12.29"/><g class="cls-33"><rect class="cls-1" x="-311.37" y="-1374.62" width="914.13" height="2215.42"/></g><circle class="cls-2" cx="157.13" cy="284.62" r="9.53"/><g class="cls-34"><rect class="cls-2" x="-206.08" y="-1001.52" width="708.57" height="1717.23"/></g><circle class="cls-1" cx="297.09" cy="284.64" r="12.29"/><g class="cls-35"><rect class="cls-1" x="-171.49" y="-1374.63" width="914.13" height="2215.42"/></g><circle class="cls-2" cx="297.06" cy="284.67" r="9.53"/><g class="cls-36"><rect class="cls-2" x="-66.16" y="-1001.47" width="708.57" height="1717.23"/></g></g></svg>