<svg version="1" xmlns="http://www.w3.org/2000/svg" width="682.667" height="682.667" viewBox="0 0 512.000000 512.000000"><path d="M212.6 2.6c-56.8 9.8-108.1 37.8-146.4 79.7-33 36.1-54.1 79.2-63.4 129.2C.2 225.1-.9 273 .9 286.4c6.9 49 25.4 92.7 54.8 129.1 9.7 12.1 27.6 29.9 39.5 39.4 28.4 22.7 66.4 41.2 101.4 49.5 12 2.9 28.8 5.6 34.6 5.6 2 0 4 .5 4.3 1 .8 1.3 38.2 1.3 39 0 .3-.5 2.5-1 4.8-1 6.4 0 26.8-3.6 39.7-6.9 27.9-7.3 53.6-18.7 77.5-34.6 15.9-10.6 26.3-19.2 40.5-33.4 39.7-39.9 64.8-91.5 72.6-149.1 2-14.9 3-48 1.4-48-.6 0-1-2.3-1-5.5 0-14.3-6.1-42.3-14.1-64.9-8.5-24-24.3-52-41.5-73.6-9.4-11.8-30-32-42.2-41.3C377.1 25.8 337 8.4 295.3 2c-11-1.7-17.8-2-41-1.9-24.7 0-29.4.3-41.7 2.5zm72.1 13.9c71.6 9.4 133.1 47.9 172.2 108 17.5 26.7 29.1 56.8 35.2 91 3 16.9 3.8 51 1.5 68.5-7.2 54.5-30 101.8-67.6 139.9-37.6 38.2-86.8 62.6-140.3 69.6-15.5 2-45.9 2-61.4 0-53-7-100.9-30.3-138.1-67.3C39.3 379.6 14.8 320.8 14.8 255c0-66.7 25.1-125.7 73.3-172.5 35.6-34.5 78.8-56.4 127.1-64.4 16.1-2.7 17.1-2.7 39-2.9 12-.1 22.9.4 30.5 1.3z"/><path d="M238.5 102.6c-34.1 5.3-60.8 20.6-76.4 44-10.4 15.4-14.8 32.1-13.8 52.4 1.6 33 16.9 56.4 46.2 70.4 13.1 6.3 20.3 8.9 43.5 15.5 37 10.5 51.5 18.1 55 28.6 3.2 9.6-4.1 21.7-15.1 24.9-7.9 2.4-21.6 3.8-28.9 3.1-25.3-2.6-53.7-14.3-78.2-32.2l-4.7-3.4-2.7 4.3c-1.5 2.4-7 11-12.2 19.3-5.3 8.2-12.2 19.3-15.5 24.5l-5.9 9.5 3.3 2.8c34.9 29.9 78.8 44.2 129.8 42.4 26.9-.9 44.9-4.9 63.8-14.2 34.3-16.9 53.3-46.8 53.3-83.9-.1-30.8-15.2-57.1-41.6-72.1-10.8-6.1-33.5-14.8-56.4-21.5-31.8-9.4-42.8-14.9-47-23.5-2.7-5.5-2.3-11.7 1.1-17.1 5.9-9.6 29.7-13.1 51.6-7.5 16.3 4.2 36.5 13.2 48.6 21.7 2.6 1.9 5.1 3.4 5.5 3.4.9 0 31.2-54.3 31.2-55.9 0-2.1-16.1-12.6-29.5-19.1-14.4-7.1-24.6-10.6-41.4-14-20.4-4.1-46.3-5.1-63.6-2.4z"/></svg>