<svg id="Dibujo" xmlns="http://www.w3.org/2000/svg" viewBox="0 0 67 76"><title>weather_icons_main (1)</title><path d="M51.72,22.35a2.57,2.57,0,0,0,1.82-.75L57.19,18a2.58,2.58,0,1,0-3.64-3.64L49.9,18A2.58,2.58,0,0,0,51.72,22.35ZM10.31,38a2.58,2.58,0,0,0-2.58-2.58H2.58a2.58,2.58,0,0,0,0,5.15H7.73A2.58,2.58,0,0,0,10.31,38Zm3.15,16.4L9.81,58a2.58,2.58,0,1,0,3.64,3.64L17.1,58A2.58,2.58,0,0,0,13.46,54.4Zm0-32.8A2.58,2.58,0,0,0,17.1,18l-3.64-3.64A2.58,2.58,0,0,0,9.81,18Zm20-6.79a2.58,2.58,0,0,0,2.58-2.58V7.08a2.58,2.58,0,0,0-5.15,0v5.15A2.58,2.58,0,0,0,33.5,14.81ZM64.42,35.42H59.27a2.58,2.58,0,0,0,0,5.15h5.15A2.58,2.58,0,0,0,64.42,35.42Zm-10.88,19A2.58,2.58,0,0,0,49.9,58l3.64,3.64A2.58,2.58,0,1,0,57.19,58Zm-20,6.79a2.58,2.58,0,0,0-2.58,2.58v5.15a2.58,2.58,0,0,0,5.15,0V63.77A2.58,2.58,0,0,0,33.5,61.19ZM33.5,20a18,18,0,1,0,18,18A18.06,18.06,0,0,0,33.5,20Zm0,30.92A12.88,12.88,0,1,1,46.38,38,12.9,12.9,0,0,1,33.5,50.88Z"/></svg>