<svg id="Dibujo" xmlns="http://www.w3.org/2000/svg" viewBox="0 0 67 76"><title>weather_icons_main (1)</title><path d="M54.29,26.63a11.52,11.52,0,0,0-2,.21,19.65,19.65,0,0,0-37.69,0,11.53,11.53,0,0,0-2-.21,12.71,12.71,0,0,0,0,25.41h13l-4.54,6.8a2.31,2.31,0,0,0,1.92,3.59h2.61l-4.54,6.8A2.31,2.31,0,1,0,25,71.8L32,61.41A2.31,2.31,0,0,0,30,57.82H27.42L31.27,52h6L35,55.38A2.31,2.31,0,0,0,37,59h2.61l-2.23,3.34a2.31,2.31,0,1,0,3.84,2.56l4.62-6.93a2.31,2.31,0,0,0-1.92-3.59H41.28L42.82,52H54.29A12.71,12.71,0,0,0,54.29,26.63Zm0,20.79H12.71a8.09,8.09,0,0,1,0-16.17,8.24,8.24,0,0,1,1.38.19v2.12a2.31,2.31,0,1,0,4.62,0V29.84a15,15,0,0,1,29.59,0v3.72a2.31,2.31,0,1,0,4.62,0V31.44a8.29,8.29,0,0,1,1.38-.19A8.09,8.09,0,0,1,54.29,47.42Z"/></svg>