<svg id="Dibujo" xmlns="http://www.w3.org/2000/svg" viewBox="0 0 67 76"><title>weather_icons_main (1)</title><path d="M54.29,18.7a11.52,11.52,0,0,0-2,.21,19.65,19.65,0,0,0-37.69,0,11.53,11.53,0,0,0-2-.21,12.71,12.71,0,0,0,0,25.41,2.31,2.31,0,1,0,0-4.62,8.09,8.09,0,0,1,0-16.17,8.25,8.25,0,0,1,1.38.19v2.12a2.31,2.31,0,1,0,4.62,0V21.9a15,15,0,0,1,29.59,0v3.71a2.31,2.31,0,1,0,4.62,0V23.5a8.21,8.21,0,0,1,1.38-.19,8.09,8.09,0,0,1,0,16.17,2.31,2.31,0,1,0,0,4.62A12.71,12.71,0,1,0,54.29,18.7Z"/><path d="M23.8,40.41a2.39,2.39,0,0,0-3.7,0c-0.92,1.23-3.93,5.46-3.93,8.32a5.53,5.53,0,0,0,5.78,5.78,5.53,5.53,0,0,0,5.78-5.78C27.72,45.87,24.72,41.64,23.8,40.41Z"/><path d="M43.2,40.41c-0.92,1.23-3.93,5.46-3.93,8.32a5.53,5.53,0,0,0,5.78,5.78,5.53,5.53,0,0,0,5.78-5.78c0-2.86-3-7.09-3.93-8.32A2.39,2.39,0,0,0,43.2,40.41Z"/><path d="M31.65,54.27c-0.92,1.23-3.93,5.46-3.93,8.32a5.53,5.53,0,0,0,5.78,5.78,5.53,5.53,0,0,0,5.78-5.78c0-2.86-3-7.09-3.93-8.32A2.39,2.39,0,0,0,31.65,54.27Z"/></svg>