<svg id="Dibujo" xmlns="http://www.w3.org/2000/svg" viewBox="0 0 67 76"><title>weather_icons_main (1)</title><path d="M54.29,26.47a11.53,11.53,0,0,0-2,.21,19.65,19.65,0,0,0-37.68,0,11.54,11.54,0,0,0-2-.21,12.71,12.71,0,0,0,0,25.41,2.31,2.31,0,1,0,0-4.62,8.09,8.09,0,0,1,0-16.17,8.24,8.24,0,0,1,1.38.19V33.4a2.31,2.31,0,1,0,4.62,0V29.68a15,15,0,0,1,29.59,0V33.4a2.31,2.31,0,1,0,4.62,0V31.28a8.24,8.24,0,0,1,1.38-.19,8.09,8.09,0,0,1,0,16.17,2.31,2.31,0,1,0,0,4.62A12.71,12.71,0,1,0,54.29,26.47Z"/><path d="M30.88,52.42a2.31,2.31,0,1,0-4,2.31l1.16,2a2.31,2.31,0,1,0,4-2.31Z"/><path d="M25.1,42.42a2.31,2.31,0,0,0-4,2.31l1.16,2a2.31,2.31,0,1,0,4-2.31Z"/><path d="M27.72,47.57a2.31,2.31,0,0,0,3.16-.85l1.16-2a2.31,2.31,0,1,0-4-2.31l-1.16,2A2.31,2.31,0,0,0,27.72,47.57Z"/><path d="M25.41,51.57a2.31,2.31,0,0,0-3.16.85l-1.16,2a2.31,2.31,0,0,0,4,2.31l1.16-2A2.31,2.31,0,0,0,25.41,51.57Z"/><path d="M24.26,49.57a2.31,2.31,0,0,0-2.31-2.31H19.64a2.31,2.31,0,0,0,0,4.62h2.31A2.31,2.31,0,0,0,24.26,49.57Z"/><path d="M35.81,49.57a2.31,2.31,0,0,0-2.31-2.31H31.19a2.31,2.31,0,1,0,0,4.62H33.5A2.31,2.31,0,0,0,35.81,49.57Z"/><path d="M48.21,62.59a2.31,2.31,0,0,0-4,2.31l1.16,2a2.31,2.31,0,1,0,4-2.31Z"/><path d="M42.43,52.59a2.31,2.31,0,0,0-4,2.31l1.16,2a2.31,2.31,0,1,0,4-2.31Z"/><path d="M45.05,57.74a2.31,2.31,0,0,0,3.16-.85l1.16-2a2.31,2.31,0,1,0-4-2.31l-1.16,2A2.31,2.31,0,0,0,45.05,57.74Z"/><path d="M42.74,61.74a2.31,2.31,0,0,0-3.16.85l-1.16,2a2.31,2.31,0,0,0,4,2.31l1.16-2A2.31,2.31,0,0,0,42.74,61.74Z"/><path d="M41.59,59.74a2.31,2.31,0,0,0-2.31-2.31H37a2.31,2.31,0,1,0,0,4.62h2.31A2.31,2.31,0,0,0,41.59,59.74Z"/><path d="M50.83,57.43H48.52a2.31,2.31,0,1,0,0,4.62h2.31A2.31,2.31,0,0,0,50.83,57.43Z"/></svg>