<svg id="Dibujo" xmlns="http://www.w3.org/2000/svg" viewBox="0 0 67 76"><title>weather_icons_main (1)</title><path d="M41.23,35.42H2.58a2.58,2.58,0,1,0,0,5.15H41.23a9,9,0,1,1,0,18,2.58,2.58,0,0,0,0,5.15A14.17,14.17,0,0,0,41.23,35.42Z"/><path d="M33.5,43.15H2.58a2.58,2.58,0,0,0,0,5.15H33.5a1.29,1.29,0,0,1,0,2.58,2.58,2.58,0,0,0,0,5.15A6.44,6.44,0,0,0,33.5,43.15Z"/><path d="M60.56,25.12a2.58,2.58,0,1,0,0,5.15,1.29,1.29,0,0,1,0,2.58H55.4a2.58,2.58,0,0,0,0,5.15h5.15A6.44,6.44,0,0,0,60.56,25.12Z"/><path d="M2.58,32.84H45.1A10.31,10.31,0,1,0,34.79,22.54a2.58,2.58,0,0,0,5.15,0,5.15,5.15,0,1,1,5.15,5.15H2.58A2.58,2.58,0,1,0,2.58,32.84Z"/></svg>