<svg id="Dibujo" xmlns="http://www.w3.org/2000/svg" viewBox="0 0 67 76"><title>weather_icons_main (1)</title><path d="M54.29,18.6a11.53,11.53,0,0,0-2,.21,19.65,19.65,0,0,0-37.68,0,11.54,11.54,0,0,0-2-.21,12.71,12.71,0,0,0,0,25.41,2.31,2.31,0,0,0,0-4.62,8.09,8.09,0,0,1,0-16.17,8.24,8.24,0,0,1,1.38.19v2.12a2.31,2.31,0,1,0,4.62,0V21.81a15,15,0,0,1,29.59,0v3.72a2.31,2.31,0,1,0,4.62,0V23.41a8.24,8.24,0,0,1,1.38-.19,8.09,8.09,0,0,1,0,16.17,2.31,2.31,0,0,0,0,4.62A12.71,12.71,0,0,0,54.29,18.6Z"/><path d="M35.22,32.54a2.31,2.31,0,0,0-2.8,1.68L25.48,61.94A2.31,2.31,0,0,0,30,63.06L36.9,35.34A2.31,2.31,0,0,0,35.22,32.54Z"/><path d="M44.46,39.47a2.31,2.31,0,0,0-2.8,1.68L38.19,55a2.31,2.31,0,0,0,4.48,1.12l3.46-13.86A2.31,2.31,0,0,0,44.46,39.47Z"/><path d="M22.51,39.47a2.31,2.31,0,0,0-2.8,1.68L16.24,55a2.31,2.31,0,0,0,4.48,1.12l3.46-13.86A2.31,2.31,0,0,0,22.51,39.47Z"/></svg>