<?xml version="1.0" encoding="utf-8"?>
<!-- Generator: Adobe Illustrator 16.0.0, SVG Export Plug-In . SVG Version: 6.00 Build 0)  -->
<!DOCTYPE svg PUBLIC "-//W3C//DTD SVG 1.1//EN" "http://www.w3.org/Graphics/SVG/1.1/DTD/svg11.dtd">
<svg version="1.1" id="Layer_1" xmlns="http://www.w3.org/2000/svg" xmlns:xlink="http://www.w3.org/1999/xlink" x="0px" y="0px"
    width="678px" height="257px" viewBox="0 11.167 678 257" enable-background="new 0 11.167 678 257" xml:space="preserve">
<g>
    <path d="M132.659,235.135c-11.247,8.748-26.557,13.434-47.177,13.434c-23.12,0-47.488-7.186-64.983-23.744l18.746-29.68
        c12.497,10.623,33.116,18.746,45.613,18.746s21.245-3.125,21.245-13.122s-22.494-14.996-28.118-16.871
        c-5.936-1.562-14.684-4.062-21.869-7.187c-7.187-3.123-26.244-12.809-26.244-40.302c0-29.993,26.244-48.425,58.423-48.425
        s50.3,11.872,59.048,19.058l-16.246,29.368c-8.748-6.873-26.244-14.996-38.741-14.996c-11.872,0-18.433,3.124-18.433,11.247
        c0,8.123,11.872,11.872,22.495,14.997c10.623,3.124,15.309,4.687,21.87,7.187c6.874,2.5,14.684,6.561,19.995,11.56
        c4.998,4.999,12.496,14.997,12.496,31.243C150.779,213.579,143.906,226.075,132.659,235.135z"/>
    <path d="M266.062,129.224h-34.054v55.299c0,13.122,1.875,16.246,4.374,19.058c2.187,2.5,5.311,3.75,11.872,3.75
        c7.811,0,14.996-2.812,14.996-2.812l2.5,39.053c-3.749,0.938-17.496,4.999-35.616,4.999c-17.808,0-29.68-5.312-37.491-14.372
        c-7.811-9.06-10.935-21.869-10.935-45.301v-59.673h-21.87V91.42h21.87V49.556h50.3V91.42h34.054V129.224z"/>
    <path d="M428.207,245.133h-48.112l-0.312-17.496c-6.561,9.373-22.807,20.932-44.988,20.932c-22.183,0-36.241-7.811-44.052-18.121
        c-7.499-10.621-11.248-24.057-11.248-46.238V91.108h49.987v86.229c0,17.809,4.999,29.994,22.807,29.994
        c17.809,0,25.932-14.06,25.932-34.367V91.108h49.987V245.133z"/>
    <path d="M549.43,64.239c0,0-9.686-2.812-18.434-2.812c-14.684,0-18.433,8.436-18.433,19.995v9.998h33.116v37.803h-33.116v115.908
        h-50.301V129.224h-19.684V91.42h19.684v-8.436c0-17.183,3.437-32.18,12.497-41.552c9.061-9.685,23.744-15.934,43.113-15.934
        c19.684,0,34.056,4.062,34.056,4.062L549.43,64.239z"/>
    <path d="M650.653,64.239c0,0-9.685-2.812-18.433-2.812c-14.685,0-18.434,8.436-18.434,19.995v9.998h33.116v37.803h-33.116v115.908
        h-50.301V129.224h-19.683V91.42h19.683v-8.436c0-17.183,3.438-32.18,12.497-41.552c9.062-9.685,23.744-15.934,43.114-15.934
        c19.683,0,34.055,4.062,34.055,4.062L650.653,64.239z"/>
</g>
</svg>
