<svg id="Layer_1" data-name="Layer 1" xmlns="http://www.w3.org/2000/svg" viewBox="0 0 130.28 160.59"><title>Stuff Logo 2016_RGB</title><path d="M112.16,147.15C100.91,155.9,85.6,160.59,65,160.59c-23.12,0-47.48-7.19-65-23.75l18.75-29.68c12.49,10.62,33.11,18.75,45.61,18.75s21.24-3.13,21.24-13.13-22.49-15-28.11-16.87a161,161,0,0,1-21.87-7.18C28.43,85.6,9.37,75.92,9.37,48.43,9.37,18.43,35.62,0,67.8,0s50.3,11.87,59,19.06L110.6,48.43c-8.75-6.88-26.25-15-38.74-15-11.87,0-18.44,3.12-18.44,11.25s11.88,11.87,22.5,15,15.31,4.69,21.87,7.19c6.87,2.5,14.68,6.56,20,11.56,5,5,12.5,15,12.5,31.24C130.28,125.59,123.41,138.09,112.16,147.15Z"/></svg>