<?xml version="1.0" encoding="UTF-8" standalone="no"?>
<!DOCTYPE svg PUBLIC "-//W3C//DTD SVG 1.1//EN"
 "http://www.w3.org/Graphics/SVG/1.1/DTD/svg11.dtd">
<!-- Generated by graphviz version 2.40.1 (20161225.0304)
 -->
<!-- Title: dependencies Pages: 1 -->
<svg width="1124pt" height="284pt"
 viewBox="0.00 0.00 1124.00 284.00" xmlns="http://www.w3.org/2000/svg" xmlns:xlink="http://www.w3.org/1999/xlink">
<g id="graph0" class="graph" transform="scale(1 1) rotate(0) translate(4 280)">
<title>dependencies</title>
<polygon fill="#ffffff" stroke="transparent" points="-4,4 -4,-280 1120,-280 1120,4 -4,4"/>
<text text-anchor="start" x="537.0091" y="-42.4" font-family="sans-serif" font-weight="bold" font-size="14.00" fill="#000000">Legend</text>
<polygon fill="#ffffb3" stroke="transparent" points="324,-10 324,-30 344,-30 344,-10 324,-10"/>
<text text-anchor="start" x="347.629" y="-15.4" font-family="sans-serif" font-size="14.00" fill="#000000"> &#160;Declarations</text>
<polygon fill="#8dd3c7" stroke="transparent" points="437,-10 437,-30 457,-30 457,-10 437,-10"/>
<text text-anchor="start" x="460.7251" y="-15.4" font-family="sans-serif" font-size="14.00" fill="#000000"> &#160;Module</text>
<polygon fill="#80b1d3" stroke="transparent" points="523,-10 523,-30 543,-30 543,-10 523,-10"/>
<text text-anchor="start" x="546.7812" y="-15.4" font-family="sans-serif" font-size="14.00" fill="#000000"> &#160;Bootstrap</text>
<polygon fill="#fdb462" stroke="transparent" points="620,-10 620,-30 640,-30 640,-10 620,-10"/>
<text text-anchor="start" x="643.6732" y="-15.4" font-family="sans-serif" font-size="14.00" fill="#000000"> &#160;Providers</text>
<polygon fill="#fb8072" stroke="transparent" points="716,-10 716,-30 736,-30 736,-10 716,-10"/>
<text text-anchor="start" x="739.7258" y="-15.4" font-family="sans-serif" font-size="14.00" fill="#000000"> &#160;Exports</text>
<g id="clust1" class="cluster">
<title>cluster_AppModule</title>
<polygon fill="none" stroke="#000000" stroke-dasharray="1,5" points="8,-70 8,-268 1108,-268 1108,-70 8,-70"/>
</g>
<g id="clust2" class="cluster">
<title>cluster_AppModule_declarations</title>
<polygon fill="none" stroke="#000000" points="365,-78 365,-130 1100,-130 1100,-78 365,-78"/>
</g>
<g id="clust8" class="cluster">
<title>cluster_AppModule_imports</title>
<polygon fill="none" stroke="#000000" points="16,-78 16,-130 357,-130 357,-78 16,-78"/>
</g>
<g id="clust10" class="cluster">
<title>cluster_AppModule_bootstrap</title>
<polygon fill="none" stroke="#000000" points="552,-208 552,-260 676,-260 676,-208 552,-208"/>
</g>
<!-- AppComponent -->
<g id="node1" class="node">
<title>AppComponent</title>
<polygon fill="#ffffb3" stroke="#000000" points="1091.9399,-122 986.0601,-122 986.0601,-86 1091.9399,-86 1091.9399,-122"/>
<text text-anchor="middle" x="1039" y="-99.8" font-family="Times,serif" font-size="14.00" fill="#000000">AppComponent</text>
</g>
<!-- AppModule -->
<g id="node6" class="node">
<title>AppModule</title>
<polygon fill="#8dd3c7" stroke="#000000" points="655.6571,-187 652.6571,-191 631.6571,-191 628.6571,-187 572.3429,-187 572.3429,-151 655.6571,-151 655.6571,-187"/>
<text text-anchor="middle" x="614" y="-164.8" font-family="Times,serif" font-size="14.00" fill="#000000">AppModule</text>
</g>
<!-- AppComponent&#45;&gt;AppModule -->
<g id="edge1" class="edge">
<title>AppComponent&#45;&gt;AppModule</title>
<path fill="none" stroke="#000000" d="M1039,-122.2921C1039,-144.2057 1039,-178 1039,-178 1039,-178 665.9138,-178 665.9138,-178"/>
<polygon fill="#000000" stroke="#000000" points="665.9138,-174.5001 655.9138,-178 665.9137,-181.5001 665.9138,-174.5001"/>
</g>
<!-- AuthoringComponent -->
<g id="node2" class="node">
<title>AuthoringComponent</title>
<polygon fill="#ffffb3" stroke="#000000" points="968.3809,-122 829.6191,-122 829.6191,-86 968.3809,-86 968.3809,-122"/>
<text text-anchor="middle" x="899" y="-99.8" font-family="Times,serif" font-size="14.00" fill="#000000">AuthoringComponent</text>
</g>
<!-- AuthoringComponent&#45;&gt;AppModule -->
<g id="edge2" class="edge">
<title>AuthoringComponent&#45;&gt;AppModule</title>
<path fill="none" stroke="#000000" d="M899,-122.1061C899,-141.3391 899,-169 899,-169 899,-169 665.7467,-169 665.7467,-169"/>
<polygon fill="#000000" stroke="#000000" points="665.7467,-165.5001 655.7467,-169 665.7466,-172.5001 665.7467,-165.5001"/>
</g>
<!-- HeaderComponent -->
<g id="node3" class="node">
<title>HeaderComponent</title>
<polygon fill="#ffffb3" stroke="#000000" points="811.7437,-122 690.2563,-122 690.2563,-86 811.7437,-86 811.7437,-122"/>
<text text-anchor="middle" x="751" y="-99.8" font-family="Times,serif" font-size="14.00" fill="#000000">HeaderComponent</text>
</g>
<!-- HeaderComponent&#45;&gt;AppModule -->
<g id="edge3" class="edge">
<title>HeaderComponent&#45;&gt;AppModule</title>
<path fill="none" stroke="#000000" d="M751,-122.027C751,-138.3976 751,-160 751,-160 751,-160 665.8489,-160 665.8489,-160"/>
<polygon fill="#000000" stroke="#000000" points="665.849,-156.5001 655.8489,-160 665.8489,-163.5001 665.849,-156.5001"/>
</g>
<!-- HomeComponent -->
<g id="node4" class="node">
<title>HomeComponent</title>
<polygon fill="#ffffb3" stroke="#000000" points="671.5451,-122 556.4549,-122 556.4549,-86 671.5451,-86 671.5451,-122"/>
<text text-anchor="middle" x="614" y="-99.8" font-family="Times,serif" font-size="14.00" fill="#000000">HomeComponent</text>
</g>
<!-- HomeComponent&#45;&gt;AppModule -->
<g id="edge4" class="edge">
<title>HomeComponent&#45;&gt;AppModule</title>
<path fill="none" stroke="#000000" d="M614,-122.1061C614,-122.1061 614,-140.991 614,-140.991"/>
<polygon fill="#000000" stroke="#000000" points="610.5001,-140.9909 614,-150.991 617.5001,-140.991 610.5001,-140.9909"/>
</g>
<!-- PageNotFoundComponent -->
<g id="node5" class="node">
<title>PageNotFoundComponent</title>
<polygon fill="#ffffb3" stroke="#000000" points="538.8243,-122 373.1757,-122 373.1757,-86 538.8243,-86 538.8243,-122"/>
<text text-anchor="middle" x="456" y="-99.8" font-family="Times,serif" font-size="14.00" fill="#000000">PageNotFoundComponent</text>
</g>
<!-- PageNotFoundComponent&#45;&gt;AppModule -->
<g id="edge5" class="edge">
<title>PageNotFoundComponent&#45;&gt;AppModule</title>
<path fill="none" stroke="#000000" d="M456,-122.027C456,-138.3976 456,-160 456,-160 456,-160 562.0737,-160 562.0737,-160"/>
<polygon fill="#000000" stroke="#000000" points="562.0738,-163.5001 572.0737,-160 562.0737,-156.5001 562.0738,-163.5001"/>
</g>
<!-- AppComponent  -->
<g id="node9" class="node">
<title>AppComponent </title>
<polygon fill="#80b1d3" stroke="#000000" points="668.439,-252 559.561,-252 559.561,-216 668.439,-216 668.439,-252"/>
<text text-anchor="middle" x="614" y="-229.8" font-family="Times,serif" font-size="14.00" fill="#000000">AppComponent </text>
</g>
<!-- AppModule&#45;&gt;AppComponent  -->
<g id="edge8" class="edge">
<title>AppModule&#45;&gt;AppComponent </title>
<path fill="none" stroke="#000000" stroke-dasharray="1,5" d="M614,-187.1061C614,-187.1061 614,-205.991 614,-205.991"/>
<polygon fill="#000000" stroke="#000000" points="610.5001,-205.9909 614,-215.991 617.5001,-205.991 610.5001,-205.9909"/>
</g>
<!-- AppRoutingModule -->
<g id="node7" class="node">
<title>AppRoutingModule</title>
<polygon fill="#8dd3c7" stroke="#000000" points="349.2744,-122 346.2744,-126 325.2744,-126 322.2744,-122 220.7256,-122 220.7256,-86 349.2744,-86 349.2744,-122"/>
<text text-anchor="middle" x="285" y="-99.8" font-family="Times,serif" font-size="14.00" fill="#000000">AppRoutingModule</text>
</g>
<!-- AppRoutingModule&#45;&gt;AppModule -->
<g id="edge6" class="edge">
<title>AppRoutingModule&#45;&gt;AppModule</title>
<path fill="none" stroke="#000000" d="M285,-122.1061C285,-141.3391 285,-169 285,-169 285,-169 562.3319,-169 562.3319,-169"/>
<polygon fill="#000000" stroke="#000000" points="562.332,-172.5001 572.3319,-169 562.3319,-165.5001 562.332,-172.5001"/>
</g>
<!-- StuffCustomMaterialModule -->
<g id="node8" class="node">
<title>StuffCustomMaterialModule</title>
<polygon fill="#8dd3c7" stroke="#000000" points="202.028,-122 199.028,-126 178.028,-126 175.028,-122 23.972,-122 23.972,-86 202.028,-86 202.028,-122"/>
<text text-anchor="middle" x="113" y="-99.8" font-family="Times,serif" font-size="14.00" fill="#000000">StuffCustomMaterialModule</text>
</g>
<!-- StuffCustomMaterialModule&#45;&gt;AppModule -->
<g id="edge7" class="edge">
<title>StuffCustomMaterialModule&#45;&gt;AppModule</title>
<path fill="none" stroke="#000000" d="M113,-122.2921C113,-144.2057 113,-178 113,-178 113,-178 562.1467,-178 562.1467,-178"/>
<polygon fill="#000000" stroke="#000000" points="562.1468,-181.5001 572.1467,-178 562.1467,-174.5001 562.1468,-181.5001"/>
</g>
</g>
</svg>
