<?xml version="1.0" encoding="utf-8"?>
<!-- Generator: Adobe Illustrator 16.0.0, SVG Export Plug-In . SVG Version: 6.00 Build 0)  -->
<!DOCTYPE svg PUBLIC "-//W3C//DTD SVG 1.1//EN" "http://www.w3.org/Graphics/SVG/1.1/DTD/svg11.dtd">
<svg version="1.1" id="Layer_1" xmlns="http://www.w3.org/2000/svg"  x="0px" y="0px"
	 width="200px" height="200px" viewBox="0 0 200 200" enable-background="new 0 0 200 200" xml:space="preserve">
<path fill="#5EA9DE" d="M200,176c0,13.255-10.745,24-24,24H24c-13.255,0-24-10.745-24-24V24C0,10.745,10.745,0,24,0h152
	c13.255,0,24,10.745,24,24V176z"/>
<g id="Logo__x2014__FIXED">
	<g>
		<path fill="#FFFFFF" d="M75.06,160.422c52.769,0,81.641-43.754,81.641-81.637c0-1.234,0-2.464-0.057-3.698
			c5.596-4.028,10.467-9.118,14.327-14.882c-5.146,2.292-10.686,3.803-16.507,4.534c5.93-3.529,10.462-9.181,12.646-15.895
			c-5.539,3.304-11.696,5.651-18.242,6.939c-5.261-5.596-12.702-9.062-20.927-9.062c-15.838,0-28.709,12.868-28.709,28.703
			c0,2.239,0.281,4.422,0.731,6.548C76.124,80.795,54.972,69.327,40.813,51.98c-2.46,4.253-3.859,9.174-3.859,14.436
			c0,9.961,5.09,18.745,12.759,23.894c-4.703-0.168-9.125-1.455-12.984-3.582c0,0.112,0,0.225,0,0.394
			c0,13.876,9.905,25.515,22.998,28.147c-2.408,0.668-4.925,1.006-7.554,1.006c-1.849,0-3.638-0.169-5.371-0.506
			c3.635,11.416,14.267,19.697,26.801,19.922C63.759,143.412,51.391,148,37.96,148c-2.292,0-4.59-0.112-6.826-0.39
			C43.78,155.67,58.888,160.422,75.06,160.422"/>
	</g>
</g>
</svg>
