<?xml version="1.0" encoding="utf-8"?>
<!-- Generator: Adobe Illustrator 16.0.0, SVG Export Plug-In . SVG Version: 6.00 Build 0)  -->
<!DOCTYPE svg PUBLIC "-//W3C//DTD SVG 1.1//EN" "http://www.w3.org/Graphics/SVG/1.1/DTD/svg11.dtd">
<svg version="1.1" id="Layer_1" xmlns="http://www.w3.org/2000/svg"  x="0px" y="0px"
	 width="200px" height="200px" viewBox="0 0 200 200" enable-background="new 0 0 200 200" xml:space="preserve">
<path fill="#3D5A9A" d="M200,176c0,13.255-10.745,24-24,24H24c-13.255,0-24-10.745-24-24V24C0,10.745,10.745,0,24,0h152
	c13.255,0,24,10.745,24,24V176z"/>
<path id="f" fill="#FFFFFF" d="M137.578,200v-77.216l25.917-0.605l3.882-30.093h-29.799V72.873c0-8.713,2.42-14.65,14.913-14.65
	l15.936-0.007V31.301c-2.757-0.366-12.216-1.185-23.221-1.185c-22.976,0-38.703,14.023-38.703,39.778v22.192H80.518v30.093
	l25.985,0.605V200H137.578z"/>
</svg>
