<svg id="Dibujo" xmlns="http://www.w3.org/2000/svg" viewBox="0 0 67 76"><title>weather_icons_main (1)</title><path d="M53.55,36A14,14,0,0,0,29.5,21.85l-0.5,0A16.92,16.92,0,0,0,12.69,34,10,10,0,0,0,11,33.83a11,11,0,0,0,0,22H47A11,11,0,0,0,53.55,36ZM41,19.83a10,10,0,0,1,9,14.42,11,11,0,0,0-3-.42,10,10,0,0,0-1.69.18A16.88,16.88,0,0,0,34.1,22.62,10,10,0,0,1,41,19.83Zm6,32H11a7,7,0,0,1,0-14,7.13,7.13,0,0,1,1.19.16v1.84a2,2,0,1,0,4,0V36.61a13,13,0,0,1,25.61,0v3.21a2,2,0,1,0,4,0V38A7.19,7.19,0,0,1,47,37.83,7,7,0,0,1,47,51.83Z"/><path d="M41,11.83a2,2,0,0,0,2-2v-4a2,2,0,1,0-4,0v4A2,2,0,0,0,41,11.83Z"/><path d="M65,27.83H61a2,2,0,0,0,0,4h4A2,2,0,0,0,65,27.83Z"/><path d="M55.14,17.69a2,2,0,0,0,1.41-.59l2.83-2.83a2,2,0,1,0-2.83-2.83l-2.83,2.83A2,2,0,0,0,55.14,17.69Z"/><path d="M25.44,17.1a2,2,0,1,0,2.83-2.83l-2.83-2.83a2,2,0,0,0-2.83,2.83Z"/></svg>