<svg id="Dibujo" xmlns="http://www.w3.org/2000/svg" viewBox="0 0 67 76"><title>weather_icons_main (1)</title><path d="M24.08,24.39H36.64a2.09,2.09,0,0,0,0-4.19H24.08A2.09,2.09,0,0,0,24.08,24.39Z"/><path d="M11.52,30.67H36.64a2.09,2.09,0,0,0,0-4.19H11.52A2.09,2.09,0,0,0,11.52,30.67Z"/><path d="M5.23,37H30.36a2.09,2.09,0,0,0,0-4.19H5.23A2.09,2.09,0,0,0,5.23,37Z"/><path d="M67,41.14A2.09,2.09,0,0,0,64.91,39H2.09a2.09,2.09,0,0,0,0,4.19H64.91A2.09,2.09,0,0,0,67,41.14Z"/><path d="M64.91,45.33H5.23a2.09,2.09,0,0,0,0,4.19H64.91A2.09,2.09,0,0,0,64.91,45.33Z"/><path d="M24.08,51.61H11.52a2.09,2.09,0,0,0,0,4.19H24.08A2.09,2.09,0,0,0,24.08,51.61Z"/><path d="M44,30.67h8.38a2.09,2.09,0,0,0,0-4.19H44A2.09,2.09,0,0,0,44,30.67Z"/><path d="M34.55,34.86A2.09,2.09,0,0,0,36.64,37h22a2.09,2.09,0,0,0,0-4.19h-22A2.09,2.09,0,0,0,34.55,34.86Z"/><path d="M58.63,51.61H30.36a2.09,2.09,0,0,0,0,4.19H58.63A2.09,2.09,0,0,0,58.63,51.61Z"/></svg>