<svg id="Dibujo" xmlns="http://www.w3.org/2000/svg" viewBox="0 0 23.79 19.9"><defs><style>.cls-1{fill:#2e353a;}</style></defs><title>weather_icons_main (1)</title><polygon class="cls-1" points="0.71 11.11 2.91 9.17 7.87 14.76 21.05 0.72 23.09 2.79 7.86 19.16 0.71 11.11"/><path class="cls-1" d="M21.06,1.44L22.4,2.8,7.86,18.42,1.41,11.16,2.86,9.87l5,5.62L21.06,1.44M21,0l-0.71.76L7.88,14,3.61,9.21,2.95,8.46,2.2,9.13,0.75,10.41,0,11.07l0.67,0.75,6.45,7.26L7.85,19.9l0.75-.8L23.13,3.48l0.65-.7L23.11,2.1,21.77,0.74,21,0h0Z"/></svg>