<svg id="Dibujo" xmlns="http://www.w3.org/2000/svg" viewBox="0 0 67 76"><defs><style>.cls-1{fill:#222221;}</style></defs><title>weather_icons_main (1)</title><path d="M54.29,26.51a11.53,11.53,0,0,0-2,.21,19.65,19.65,0,0,0-37.69,0,11.53,11.53,0,0,0-1.95-.21,12.71,12.71,0,0,0,0,25.41H15a2.31,2.31,0,1,0,0-4.62H12.71a8.09,8.09,0,0,1,0-16.17,8.24,8.24,0,0,1,1.38.19v2.12a2.31,2.31,0,1,0,4.62,0V29.72a15,15,0,0,1,29.59,0v3.71a2.31,2.31,0,1,0,4.62,0V31.32a8.24,8.24,0,0,1,1.38-.19,8.09,8.09,0,0,1,0,16.17H52a2.31,2.31,0,0,0,0,4.62h2.31A12.71,12.71,0,0,0,54.29,26.51Z"/><path class="cls-1" d="M30.2,45.4a6.18,6.18,0,0,1,1.15-1.6,23.19,23.19,0,0,1,1.81-1.57q1-.82,1.64-1.4a5.17,5.17,0,0,0,1-1.36,3.69,3.69,0,0,0,.41-1.74,2.9,2.9,0,0,0-1.3-2.59,7.41,7.41,0,0,0-4-.86,13.41,13.41,0,0,0-1.81.1,10.15,10.15,0,0,0-1.07.2l-0.49.13V30.91a5.65,5.65,0,0,1,1.74-.56,13.78,13.78,0,0,1,2.66-.24,13.39,13.39,0,0,1,5.66,1,6.69,6.69,0,0,1,3.12,2.68,7,7,0,0,1,.89,3.67A6.43,6.43,0,0,1,41,40.24a7.32,7.32,0,0,1-1.37,2,26.7,26.7,0,0,1-2.13,1.9q-1.08.9-1.69,1.49a6.28,6.28,0,0,0-1,1.35,3.85,3.85,0,0,0-.51,1.68c0,0.11,0,.26,0,0.46a4.58,4.58,0,0,0,.1,1q0.1,0.45.33,1.25c0,0.09.08,0.31,0.18,0.65H31a8.3,8.3,0,0,1-.92-1.92,8.07,8.07,0,0,1-.36-2.56A4.66,4.66,0,0,1,30.2,45.4Zm0.73,10.8a3.24,3.24,0,0,1,1.16-1.14,3.1,3.1,0,0,1,3.05,0,2.57,2.57,0,0,1,1,1,3.11,3.11,0,0,1,.35,1.48,3,3,0,0,1-.43,1.55,3.33,3.33,0,0,1-1.15,1.15,2.93,2.93,0,0,1-1.54.43,2.82,2.82,0,0,1-2.49-1.44A3,3,0,0,1,30.92,56.2Z"/></svg>