<svg id="Dibujo" xmlns="http://www.w3.org/2000/svg" viewBox="0 0 67 76"><title>weather_icons_main (1)</title><path d="M53.55,32.19A14,14,0,0,0,29.5,18L29,18A16.92,16.92,0,0,0,12.69,30.18,10,10,0,0,0,11,30a11,11,0,0,0,0,22h7V68a2,2,0,1,0,4,0V52H36V68a2,2,0,1,0,4,0V52h7A11,11,0,0,0,53.55,32.19ZM41,16a10,10,0,0,1,9,14.42A11,11,0,0,0,47,30a10,10,0,0,0-1.69.18A16.88,16.88,0,0,0,34.1,18.78,10,10,0,0,1,41,16Zm6,32H11a7,7,0,0,1,0-14,7.13,7.13,0,0,1,1.19.16V36a2,2,0,1,0,4,0V32.78a13,13,0,0,1,25.61,0V36a2,2,0,1,0,4,0V34.16A7.2,7.2,0,0,1,47,34,7,7,0,0,1,47,48Z"/><path d="M41,8a2,2,0,0,0,2-2V2a2,2,0,1,0-4,0V6A2,2,0,0,0,41,8Z"/><path d="M65,24H61a2,2,0,0,0,0,4h4A2,2,0,0,0,65,24Z"/><path d="M55.14,13.86a2,2,0,0,0,1.41-.59l2.83-2.83a2,2,0,0,0-2.83-2.83l-2.83,2.83A2,2,0,0,0,55.14,13.86Z"/><path d="M25.44,13.27a2,2,0,1,0,2.83-2.83L25.44,7.61a2,2,0,0,0-2.83,2.83Z"/><path d="M29,54a2,2,0,0,0-2,2V74a2,2,0,1,0,4,0V56A2,2,0,0,0,29,54Z"/></svg>