<svg id="Layer_2" data-name="Layer 2" xmlns="http://www.w3.org/2000/svg" xmlns:xlink="http://www.w3.org/1999/xlink" width="16" height="16" viewBox="0 0 16 16"><defs><style>.cls-1,.cls-3,.cls-4{fill:#263238;}.cls-1{clip-rule:evenodd;}.cls-2{fill:#fff;}.cls-4{fill-rule:evenodd;}.cls-5{clip-path:url(#clip-path);}.cls-6{clip-path:url(#clip-path-2);}.cls-7{clip-path:url(#clip-path-3);}.cls-8{clip-path:url(#clip-path-4);}.cls-9{clip-path:url(#clip-path-5);}.cls-10{clip-path:url(#clip-path-6);}.cls-11{clip-path:url(#clip-path-7);}.cls-12{clip-path:url(#clip-path-8);}.cls-13{clip-path:url(#clip-path-9);}.cls-14{clip-path:url(#clip-path-10);}.cls-15{clip-path:url(#clip-path-11);}.cls-16{clip-path:url(#clip-path-12);}.cls-17{clip-path:url(#clip-path-13);}.cls-18{clip-path:url(#clip-path-14);}.cls-19{clip-path:url(#clip-path-15);}.cls-20{clip-path:url(#clip-path-16);}.cls-21{clip-path:url(#clip-path-17);}</style><clipPath id="clip-path"><polygon class="cls-1" points="-529.1 105.21 -529.1 80.02 -510.45 92.62 -529.1 105.21"/></clipPath><clipPath id="clip-path-2"><circle class="cls-3" cx="-390.13" cy="92.48" r="2.77"/></clipPath><clipPath id="clip-path-3"><circle class="cls-3" cx="-380.44" cy="92.48" r="2.77"/></clipPath><clipPath id="clip-path-4"><circle class="cls-3" cx="-399.83" cy="92.48" r="2.77"/></clipPath><clipPath id="clip-path-5"><circle class="cls-3" cx="-390.02" cy="298.2" r="12.21"/></clipPath><clipPath id="clip-path-6"><circle class="cls-2" cx="-391.95" cy="219.39" r="12.21"/></clipPath><clipPath id="clip-path-7"><polygon class="cls-1" points="-254.36 4.66 -245.42 -4.4 -243.18 6.75 -254.36 4.66"/></clipPath><clipPath id="clip-path-8"><polygon class="cls-1" points="-254.36 -49.45 -245.42 -58.51 -243.18 -47.36 -254.36 -49.45"/></clipPath><clipPath id="clip-path-9"><polygon class="cls-1" points="-529.03 156.47 -529.03 131.47 -510.52 143.97 -529.03 156.47"/></clipPath><clipPath id="clip-path-10"><circle class="cls-3" cx="-181.19" cy="7.82" r="12.29"/></clipPath><clipPath id="clip-path-11"><circle class="cls-2" cx="-181.23" cy="7.85" r="9.53"/></clipPath><clipPath id="clip-path-12"><circle class="cls-3" cx="-181.19" cy="-46.28" r="12.29"/></clipPath><clipPath id="clip-path-13"><circle class="cls-2" cx="-181.23" cy="-46.25" r="9.53"/></clipPath><clipPath id="clip-path-14"><circle class="cls-3" cx="-390.29" cy="143.97" r="2.78"/></clipPath><clipPath id="clip-path-15"><circle class="cls-3" cx="-380.57" cy="143.97" r="2.78"/></clipPath><clipPath id="clip-path-16"><circle class="cls-3" cx="-400.02" cy="143.97" r="2.78"/></clipPath><clipPath id="clip-path-17"><circle class="cls-3" cx="-390.09" cy="352.11" r="12.29"/></clipPath></defs><title>Icongraphy</title><g id="Layer_1" data-name="Layer 1"><polygon class="cls-4" points="-529.1 105.21 -529.1 80.02 -510.45 92.62 -529.1 105.21"/><g class="cls-5"><rect class="cls-3" x="-1091.73" y="-1139.52" width="1109.65" height="2689.28"/></g><circle class="cls-3" cx="-390.13" cy="92.48" r="2.77"/><g class="cls-6"><rect class="cls-3" x="-812.64" y="-989.41" width="824.23" height="1997.54"/></g><circle class="cls-3" cx="-380.44" cy="92.48" r="2.77"/><g class="cls-7"><rect class="cls-3" x="-812.64" y="-989.41" width="824.23" height="1997.54"/></g><circle class="cls-3" cx="-399.83" cy="92.48" r="2.77"/><g class="cls-8"><rect class="cls-3" x="-812.64" y="-989.41" width="824.23" height="1997.54"/></g><circle class="cls-3" cx="-390.02" cy="298.2" r="12.21"/><g class="cls-9"><rect class="cls-3" x="-855.52" y="-1350.11" width="908.1" height="2200.8"/></g><circle class="cls-2" cx="-391.95" cy="219.39" r="12.21"/><g class="cls-10"><rect class="cls-2" x="-857.45" y="-1428.92" width="908.1" height="2200.8"/></g><polygon class="cls-4" points="-254.36 4.66 -245.42 -4.4 -243.18 6.75 -254.36 4.66"/><g class="cls-11"><rect class="cls-3" x="-972.03" y="-242.52" width="1358.83" height="560.68" transform="translate(-114.04 -197.05) rotate(-45.39)"/></g><polygon class="cls-4" points="-254.36 -49.45 -245.42 -58.51 -243.18 -47.36 -254.36 -49.45"/><g class="cls-12"><rect class="cls-3" x="-972.03" y="-296.62" width="1358.83" height="560.68" transform="translate(-75.52 -213.15) rotate(-45.39)"/></g><polygon class="cls-4" points="-529.03 156.47 -529.03 131.47 -510.52 143.97 -529.03 156.47"/><g class="cls-13"><rect class="cls-3" x="-1087.54" y="-1079.13" width="1101.52" height="2669.57"/></g><circle class="cls-3" cx="-181.19" cy="7.82" r="12.29"/><g class="cls-14"><rect class="cls-3" x="-649.78" y="-1651.44" width="914.13" height="2215.42"/></g><circle class="cls-2" cx="-181.23" cy="7.85" r="9.53"/><g class="cls-15"><rect class="cls-2" x="-544.44" y="-1278.29" width="708.57" height="1717.23"/></g><circle class="cls-3" cx="-181.19" cy="-46.28" r="12.29"/><g class="cls-16"><rect class="cls-3" x="-649.78" y="-1705.55" width="914.13" height="2215.42"/></g><circle class="cls-2" cx="-181.23" cy="-46.25" r="9.53"/><g class="cls-17"><rect class="cls-2" x="-544.44" y="-1332.39" width="708.57" height="1717.23"/></g><circle class="cls-3" cx="-390.29" cy="143.97" r="2.78"/><g class="cls-18"><rect class="cls-3" x="-813.9" y="-940.75" width="826.39" height="2002.78"/></g><circle class="cls-3" cx="-380.57" cy="143.97" r="2.78"/><g class="cls-19"><rect class="cls-3" x="-813.9" y="-940.75" width="826.39" height="2002.78"/></g><circle class="cls-3" cx="-400.02" cy="143.97" r="2.78"/><g class="cls-20"><rect class="cls-3" x="-813.9" y="-940.75" width="826.39" height="2002.78"/></g><circle class="cls-3" cx="-390.09" cy="352.11" r="12.29"/><g class="cls-21"><rect class="cls-3" x="-858.67" y="-1307.15" width="914.13" height="2215.42"/></g></g><polygon class="cls-3" points="12.39 6.65 0.02 6.68 0.03 8.57 12.39 8.54 7.89 13.01 9.23 14.34 15.98 7.56 9.19 0.8 7.87 2.15 12.39 6.65"/></svg>