<?xml version="1.0" encoding="UTF-8" standalone="no"?>
<!DOCTYPE svg PUBLIC "-//W3C//DTD SVG 1.1//EN"
 "http://www.w3.org/Graphics/SVG/1.1/DTD/svg11.dtd">
<!-- Generated by graphviz version 2.40.1 (20161225.0304)
 -->
<!-- Title: dependencies Pages: 1 -->
<svg width="1112pt" height="284pt"
 viewBox="0.00 0.00 1112.00 284.00" xmlns="http://www.w3.org/2000/svg" xmlns:xlink="http://www.w3.org/1999/xlink">
<g id="graph0" class="graph" transform="scale(1 1) rotate(0) translate(4 280)">
<title>dependencies</title>
<polygon fill="#ffffff" stroke="transparent" points="-4,4 -4,-280 1108,-280 1108,4 -4,4"/>
<text text-anchor="start" x="531.0091" y="-42.4" font-family="sans-serif" font-weight="bold" font-size="14.00" fill="#000000">Legend</text>
<polygon fill="#ffffb3" stroke="transparent" points="318,-10 318,-30 338,-30 338,-10 318,-10"/>
<text text-anchor="start" x="341.629" y="-15.4" font-family="sans-serif" font-size="14.00" fill="#000000"> &#160;Declarations</text>
<polygon fill="#8dd3c7" stroke="transparent" points="431,-10 431,-30 451,-30 451,-10 431,-10"/>
<text text-anchor="start" x="454.7251" y="-15.4" font-family="sans-serif" font-size="14.00" fill="#000000"> &#160;Module</text>
<polygon fill="#80b1d3" stroke="transparent" points="517,-10 517,-30 537,-30 537,-10 517,-10"/>
<text text-anchor="start" x="540.7812" y="-15.4" font-family="sans-serif" font-size="14.00" fill="#000000"> &#160;Bootstrap</text>
<polygon fill="#fdb462" stroke="transparent" points="614,-10 614,-30 634,-30 634,-10 614,-10"/>
<text text-anchor="start" x="637.6732" y="-15.4" font-family="sans-serif" font-size="14.00" fill="#000000"> &#160;Providers</text>
<polygon fill="#fb8072" stroke="transparent" points="710,-10 710,-30 730,-30 730,-10 710,-10"/>
<text text-anchor="start" x="733.7258" y="-15.4" font-family="sans-serif" font-size="14.00" fill="#000000"> &#160;Exports</text>
<g id="clust1" class="cluster">
<title>cluster_AppModule</title>
<polygon fill="none" stroke="#000000" stroke-dasharray="1,5" points="8,-70 8,-268 952,-268 952,-70 8,-70"/>
</g>
<g id="clust2" class="cluster">
<title>cluster_AppModule_declarations</title>
<polygon fill="none" stroke="#000000" points="365,-78 365,-130 944,-130 944,-78 365,-78"/>
</g>
<g id="clust7" class="cluster">
<title>cluster_AppModule_imports</title>
<polygon fill="none" stroke="#000000" points="16,-78 16,-130 357,-130 357,-78 16,-78"/>
</g>
<g id="clust9" class="cluster">
<title>cluster_AppModule_bootstrap</title>
<polygon fill="none" stroke="#000000" points="753,-208 753,-260 877,-260 877,-208 753,-208"/>
</g>
<g id="clust17" class="cluster">
<title>cluster_AppServerModule</title>
<polygon fill="none" stroke="#000000" stroke-dasharray="1,5" points="960,-208 960,-260 1096,-260 1096,-208 960,-208"/>
</g>
<!-- AppComponent -->
<g id="node1" class="node">
<title>AppComponent</title>
<polygon fill="#ffffb3" stroke="#000000" points="935.9399,-122 830.0601,-122 830.0601,-86 935.9399,-86 935.9399,-122"/>
<text text-anchor="middle" x="883" y="-99.8" font-family="Times,serif" font-size="14.00" fill="#000000">AppComponent</text>
</g>
<!-- AppModule -->
<g id="node5" class="node">
<title>AppModule</title>
<polygon fill="#8dd3c7" stroke="#000000" points="722.6571,-187 719.6571,-191 698.6571,-191 695.6571,-187 639.3429,-187 639.3429,-151 722.6571,-151 722.6571,-187"/>
<text text-anchor="middle" x="681" y="-164.8" font-family="Times,serif" font-size="14.00" fill="#000000">AppModule</text>
</g>
<!-- AppComponent&#45;&gt;AppModule -->
<g id="edge1" class="edge">
<title>AppComponent&#45;&gt;AppModule</title>
<path fill="none" stroke="#000000" d="M849.875,-122.027C849.875,-138.3976 849.875,-160 849.875,-160 849.875,-160 732.7444,-160 732.7444,-160"/>
<polygon fill="#000000" stroke="#000000" points="732.7444,-156.5001 722.7444,-160 732.7444,-163.5001 732.7444,-156.5001"/>
</g>
<!-- HeaderComponent -->
<g id="node2" class="node">
<title>HeaderComponent</title>
<polygon fill="#ffffb3" stroke="#000000" points="811.7437,-122 690.2563,-122 690.2563,-86 811.7437,-86 811.7437,-122"/>
<text text-anchor="middle" x="751" y="-99.8" font-family="Times,serif" font-size="14.00" fill="#000000">HeaderComponent</text>
</g>
<!-- HeaderComponent&#45;&gt;AppModule -->
<g id="edge2" class="edge">
<title>HeaderComponent&#45;&gt;AppModule</title>
<path fill="none" stroke="#000000" d="M706.4783,-122.1061C706.4783,-122.1061 706.4783,-140.991 706.4783,-140.991"/>
<polygon fill="#000000" stroke="#000000" points="702.9783,-140.9909 706.4783,-150.991 709.9783,-140.991 702.9783,-140.9909"/>
</g>
<!-- HomeComponent -->
<g id="node3" class="node">
<title>HomeComponent</title>
<polygon fill="#ffffb3" stroke="#000000" points="671.5451,-122 556.4549,-122 556.4549,-86 671.5451,-86 671.5451,-122"/>
<text text-anchor="middle" x="614" y="-99.8" font-family="Times,serif" font-size="14.00" fill="#000000">HomeComponent</text>
</g>
<!-- HomeComponent&#45;&gt;AppModule -->
<g id="edge3" class="edge">
<title>HomeComponent&#45;&gt;AppModule</title>
<path fill="none" stroke="#000000" d="M655.472,-122.1061C655.472,-122.1061 655.472,-140.991 655.472,-140.991"/>
<polygon fill="#000000" stroke="#000000" points="651.972,-140.9909 655.472,-150.991 658.972,-140.991 651.972,-140.9909"/>
</g>
<!-- PageNotFoundComponent -->
<g id="node4" class="node">
<title>PageNotFoundComponent</title>
<polygon fill="#ffffb3" stroke="#000000" points="538.8243,-122 373.1757,-122 373.1757,-86 538.8243,-86 538.8243,-122"/>
<text text-anchor="middle" x="456" y="-99.8" font-family="Times,serif" font-size="14.00" fill="#000000">PageNotFoundComponent</text>
</g>
<!-- PageNotFoundComponent&#45;&gt;AppModule -->
<g id="edge4" class="edge">
<title>PageNotFoundComponent&#45;&gt;AppModule</title>
<path fill="none" stroke="#000000" d="M456,-122.027C456,-138.3976 456,-160 456,-160 456,-160 629.2065,-160 629.2065,-160"/>
<polygon fill="#000000" stroke="#000000" points="629.2066,-163.5001 639.2065,-160 629.2065,-156.5001 629.2066,-163.5001"/>
</g>
<!-- AppComponent  -->
<g id="node8" class="node">
<title>AppComponent </title>
<polygon fill="#80b1d3" stroke="#000000" points="869.439,-252 760.561,-252 760.561,-216 869.439,-216 869.439,-252"/>
<text text-anchor="middle" x="815" y="-229.8" font-family="Times,serif" font-size="14.00" fill="#000000">AppComponent </text>
</g>
<!-- AppModule&#45;&gt;AppComponent  -->
<g id="edge7" class="edge">
<title>AppModule&#45;&gt;AppComponent </title>
<path fill="none" stroke="#000000" stroke-dasharray="1,5" d="M722.8805,-178C752.2177,-178 786.2011,-178 786.2011,-178 786.2011,-178 786.2011,-205.973 786.2011,-205.973"/>
<polygon fill="#000000" stroke="#000000" points="782.7012,-205.973 786.2011,-215.973 789.7012,-205.973 782.7012,-205.973"/>
</g>
<!-- AppServerModule -->
<g id="node9" class="node">
<title>AppServerModule</title>
<polygon fill="#8dd3c7" stroke="#000000" points="1088.1895,-252 1085.1895,-256 1064.1895,-256 1061.1895,-252 967.8105,-252 967.8105,-216 1088.1895,-216 1088.1895,-252"/>
<text text-anchor="middle" x="1028" y="-229.8" font-family="Times,serif" font-size="14.00" fill="#000000">AppServerModule</text>
</g>
<!-- AppModule&#45;&gt;AppServerModule -->
<g id="edge8" class="edge">
<title>AppModule&#45;&gt;AppServerModule</title>
<path fill="none" stroke="#000000" d="M722.8563,-169C815.1477,-169 1028,-169 1028,-169 1028,-169 1028,-205.8939 1028,-205.8939"/>
<polygon fill="#000000" stroke="#000000" points="1024.5001,-205.8938 1028,-215.8939 1031.5001,-205.8939 1024.5001,-205.8938"/>
</g>
<!-- AppRoutingModule -->
<g id="node6" class="node">
<title>AppRoutingModule</title>
<polygon fill="#8dd3c7" stroke="#000000" points="349.2744,-122 346.2744,-126 325.2744,-126 322.2744,-122 220.7256,-122 220.7256,-86 349.2744,-86 349.2744,-122"/>
<text text-anchor="middle" x="285" y="-99.8" font-family="Times,serif" font-size="14.00" fill="#000000">AppRoutingModule</text>
</g>
<!-- AppRoutingModule&#45;&gt;AppModule -->
<g id="edge5" class="edge">
<title>AppRoutingModule&#45;&gt;AppModule</title>
<path fill="none" stroke="#000000" d="M285,-122.1061C285,-141.3391 285,-169 285,-169 285,-169 628.996,-169 628.996,-169"/>
<polygon fill="#000000" stroke="#000000" points="628.996,-172.5001 638.996,-169 628.9959,-165.5001 628.996,-172.5001"/>
</g>
<!-- StuffCustomMaterialModule -->
<g id="node7" class="node">
<title>StuffCustomMaterialModule</title>
<polygon fill="#8dd3c7" stroke="#000000" points="202.028,-122 199.028,-126 178.028,-126 175.028,-122 23.972,-122 23.972,-86 202.028,-86 202.028,-122"/>
<text text-anchor="middle" x="113" y="-99.8" font-family="Times,serif" font-size="14.00" fill="#000000">StuffCustomMaterialModule</text>
</g>
<!-- StuffCustomMaterialModule&#45;&gt;AppModule -->
<g id="edge6" class="edge">
<title>StuffCustomMaterialModule&#45;&gt;AppModule</title>
<path fill="none" stroke="#000000" d="M113,-122.2921C113,-144.2057 113,-178 113,-178 113,-178 629.2336,-178 629.2336,-178"/>
<polygon fill="#000000" stroke="#000000" points="629.2336,-181.5001 639.2336,-178 629.2336,-174.5001 629.2336,-181.5001"/>
</g>
<!-- AppServerModule&#45;&gt;AppComponent  -->
<g id="edge9" class="edge">
<title>AppServerModule&#45;&gt;AppComponent </title>
<path fill="none" stroke="#000000" stroke-dasharray="1,5" d="M967.8168,-234C967.8168,-234 879.5746,-234 879.5746,-234"/>
<polygon fill="#000000" stroke="#000000" points="879.5746,-230.5001 869.5746,-234 879.5745,-237.5001 879.5746,-230.5001"/>
</g>
</g>
</svg>
