<?xml version="1.0" encoding="UTF-8" standalone="no"?>
<!DOCTYPE svg PUBLIC "-//W3C//DTD SVG 1.1//EN"
 "http://www.w3.org/Graphics/SVG/1.1/DTD/svg11.dtd">
<!-- Generated by graphviz version 2.40.1 (20161225.0304)
 -->
<!-- Title: dependencies Pages: 1 -->
<svg width="1268pt" height="284pt"
 viewBox="0.00 0.00 1268.00 284.00" xmlns="http://www.w3.org/2000/svg" xmlns:xlink="http://www.w3.org/1999/xlink">
<g id="graph0" class="graph" transform="scale(1 1) rotate(0) translate(4 280)">
<title>dependencies</title>
<polygon fill="#ffffff" stroke="transparent" points="-4,4 -4,-280 1264,-280 1264,4 -4,4"/>
<text text-anchor="start" x="609.0091" y="-42.4" font-family="sans-serif" font-weight="bold" font-size="14.00" fill="#000000">Legend</text>
<polygon fill="#ffffb3" stroke="transparent" points="396,-10 396,-30 416,-30 416,-10 396,-10"/>
<text text-anchor="start" x="419.629" y="-15.4" font-family="sans-serif" font-size="14.00" fill="#000000"> &#160;Declarations</text>
<polygon fill="#8dd3c7" stroke="transparent" points="509,-10 509,-30 529,-30 529,-10 509,-10"/>
<text text-anchor="start" x="532.7251" y="-15.4" font-family="sans-serif" font-size="14.00" fill="#000000"> &#160;Module</text>
<polygon fill="#80b1d3" stroke="transparent" points="595,-10 595,-30 615,-30 615,-10 595,-10"/>
<text text-anchor="start" x="618.7812" y="-15.4" font-family="sans-serif" font-size="14.00" fill="#000000"> &#160;Bootstrap</text>
<polygon fill="#fdb462" stroke="transparent" points="692,-10 692,-30 712,-30 712,-10 692,-10"/>
<text text-anchor="start" x="715.6732" y="-15.4" font-family="sans-serif" font-size="14.00" fill="#000000"> &#160;Providers</text>
<polygon fill="#fb8072" stroke="transparent" points="788,-10 788,-30 808,-30 808,-10 788,-10"/>
<text text-anchor="start" x="811.7258" y="-15.4" font-family="sans-serif" font-size="14.00" fill="#000000"> &#160;Exports</text>
<g id="clust1" class="cluster">
<title>cluster_AppModule</title>
<polygon fill="none" stroke="#000000" stroke-dasharray="1,5" points="8,-70 8,-268 1108,-268 1108,-70 8,-70"/>
</g>
<g id="clust2" class="cluster">
<title>cluster_AppModule_declarations</title>
<polygon fill="none" stroke="#000000" points="365,-78 365,-130 1100,-130 1100,-78 365,-78"/>
</g>
<g id="clust8" class="cluster">
<title>cluster_AppModule_imports</title>
<polygon fill="none" stroke="#000000" points="16,-78 16,-130 357,-130 357,-78 16,-78"/>
</g>
<g id="clust10" class="cluster">
<title>cluster_AppModule_bootstrap</title>
<polygon fill="none" stroke="#000000" points="832,-208 832,-260 956,-260 956,-208 832,-208"/>
</g>
<g id="clust18" class="cluster">
<title>cluster_AppServerModule</title>
<polygon fill="none" stroke="#000000" stroke-dasharray="1,5" points="1116,-208 1116,-260 1252,-260 1252,-208 1116,-208"/>
</g>
<!-- AppComponent -->
<g id="node1" class="node">
<title>AppComponent</title>
<polygon fill="#ffffb3" stroke="#000000" points="1091.9399,-122 986.0601,-122 986.0601,-86 1091.9399,-86 1091.9399,-122"/>
<text text-anchor="middle" x="1039" y="-99.8" font-family="Times,serif" font-size="14.00" fill="#000000">AppComponent</text>
</g>
<!-- AppModule -->
<g id="node6" class="node">
<title>AppModule</title>
<polygon fill="#8dd3c7" stroke="#000000" points="792.6571,-187 789.6571,-191 768.6571,-191 765.6571,-187 709.3429,-187 709.3429,-151 792.6571,-151 792.6571,-187"/>
<text text-anchor="middle" x="751" y="-164.8" font-family="Times,serif" font-size="14.00" fill="#000000">AppModule</text>
</g>
<!-- AppComponent&#45;&gt;AppModule -->
<g id="edge1" class="edge">
<title>AppComponent&#45;&gt;AppModule</title>
<path fill="none" stroke="#000000" d="M1039,-122.1061C1039,-141.3391 1039,-169 1039,-169 1039,-169 802.8777,-169 802.8777,-169"/>
<polygon fill="#000000" stroke="#000000" points="802.8777,-165.5001 792.8777,-169 802.8776,-172.5001 802.8777,-165.5001"/>
</g>
<!-- AuthoringComponent -->
<g id="node2" class="node">
<title>AuthoringComponent</title>
<polygon fill="#ffffb3" stroke="#000000" points="968.3809,-122 829.6191,-122 829.6191,-86 968.3809,-86 968.3809,-122"/>
<text text-anchor="middle" x="899" y="-99.8" font-family="Times,serif" font-size="14.00" fill="#000000">AuthoringComponent</text>
</g>
<!-- AuthoringComponent&#45;&gt;AppModule -->
<g id="edge2" class="edge">
<title>AuthoringComponent&#45;&gt;AppModule</title>
<path fill="none" stroke="#000000" d="M834.545,-122.027C834.545,-138.3976 834.545,-160 834.545,-160 834.545,-160 802.7725,-160 802.7725,-160"/>
<polygon fill="#000000" stroke="#000000" points="802.7726,-156.5001 792.7725,-160 802.7725,-163.5001 802.7726,-156.5001"/>
</g>
<!-- HeaderComponent -->
<g id="node3" class="node">
<title>HeaderComponent</title>
<polygon fill="#ffffb3" stroke="#000000" points="811.7437,-122 690.2563,-122 690.2563,-86 811.7437,-86 811.7437,-122"/>
<text text-anchor="middle" x="751" y="-99.8" font-family="Times,serif" font-size="14.00" fill="#000000">HeaderComponent</text>
</g>
<!-- HeaderComponent&#45;&gt;AppModule -->
<g id="edge3" class="edge">
<title>HeaderComponent&#45;&gt;AppModule</title>
<path fill="none" stroke="#000000" d="M751,-122.1061C751,-122.1061 751,-140.991 751,-140.991"/>
<polygon fill="#000000" stroke="#000000" points="747.5001,-140.9909 751,-150.991 754.5001,-140.991 747.5001,-140.9909"/>
</g>
<!-- HomeComponent -->
<g id="node4" class="node">
<title>HomeComponent</title>
<polygon fill="#ffffb3" stroke="#000000" points="671.5451,-122 556.4549,-122 556.4549,-86 671.5451,-86 671.5451,-122"/>
<text text-anchor="middle" x="614" y="-99.8" font-family="Times,serif" font-size="14.00" fill="#000000">HomeComponent</text>
</g>
<!-- HomeComponent&#45;&gt;AppModule -->
<g id="edge4" class="edge">
<title>HomeComponent&#45;&gt;AppModule</title>
<path fill="none" stroke="#000000" d="M614,-122.0091C614,-138.0494 614,-159 614,-159 614,-159 699.1511,-159 699.1511,-159"/>
<polygon fill="#000000" stroke="#000000" points="699.1511,-162.5001 709.1511,-159 699.151,-155.5001 699.1511,-162.5001"/>
</g>
<!-- PageNotFoundComponent -->
<g id="node5" class="node">
<title>PageNotFoundComponent</title>
<polygon fill="#ffffb3" stroke="#000000" points="538.8243,-122 373.1757,-122 373.1757,-86 538.8243,-86 538.8243,-122"/>
<text text-anchor="middle" x="456" y="-99.8" font-family="Times,serif" font-size="14.00" fill="#000000">PageNotFoundComponent</text>
</g>
<!-- PageNotFoundComponent&#45;&gt;AppModule -->
<g id="edge5" class="edge">
<title>PageNotFoundComponent&#45;&gt;AppModule</title>
<path fill="none" stroke="#000000" d="M456,-122.2667C456,-140.5552 456,-166 456,-166 456,-166 699.047,-166 699.047,-166"/>
<polygon fill="#000000" stroke="#000000" points="699.047,-169.5001 709.047,-166 699.0469,-162.5001 699.047,-169.5001"/>
</g>
<!-- AppComponent  -->
<g id="node9" class="node">
<title>AppComponent </title>
<polygon fill="#80b1d3" stroke="#000000" points="948.439,-252 839.561,-252 839.561,-216 948.439,-216 948.439,-252"/>
<text text-anchor="middle" x="894" y="-229.8" font-family="Times,serif" font-size="14.00" fill="#000000">AppComponent </text>
</g>
<!-- AppModule&#45;&gt;AppComponent  -->
<g id="edge8" class="edge">
<title>AppModule&#45;&gt;AppComponent </title>
<path fill="none" stroke="#000000" stroke-dasharray="1,5" d="M751,-187.1061C751,-206.3391 751,-234 751,-234 751,-234 829.5299,-234 829.5299,-234"/>
<polygon fill="#000000" stroke="#000000" points="829.5299,-237.5001 839.5299,-234 829.5299,-230.5001 829.5299,-237.5001"/>
</g>
<!-- AppServerModule -->
<g id="node10" class="node">
<title>AppServerModule</title>
<polygon fill="#8dd3c7" stroke="#000000" points="1244.1895,-252 1241.1895,-256 1220.1895,-256 1217.1895,-252 1123.8105,-252 1123.8105,-216 1244.1895,-216 1244.1895,-252"/>
<text text-anchor="middle" x="1184" y="-229.8" font-family="Times,serif" font-size="14.00" fill="#000000">AppServerModule</text>
</g>
<!-- AppModule&#45;&gt;AppServerModule -->
<g id="edge9" class="edge">
<title>AppModule&#45;&gt;AppServerModule</title>
<path fill="none" stroke="#000000" d="M792.9113,-178C901.5777,-178 1184,-178 1184,-178 1184,-178 1184,-205.973 1184,-205.973"/>
<polygon fill="#000000" stroke="#000000" points="1180.5001,-205.973 1184,-215.973 1187.5001,-205.973 1180.5001,-205.973"/>
</g>
<!-- AppRoutingModule -->
<g id="node7" class="node">
<title>AppRoutingModule</title>
<polygon fill="#8dd3c7" stroke="#000000" points="349.2744,-122 346.2744,-126 325.2744,-126 322.2744,-122 220.7256,-122 220.7256,-86 349.2744,-86 349.2744,-122"/>
<text text-anchor="middle" x="285" y="-99.8" font-family="Times,serif" font-size="14.00" fill="#000000">AppRoutingModule</text>
</g>
<!-- AppRoutingModule&#45;&gt;AppModule -->
<g id="edge6" class="edge">
<title>AppRoutingModule&#45;&gt;AppModule</title>
<path fill="none" stroke="#000000" d="M285,-122.1289C285,-142.5724 285,-173 285,-173 285,-173 699.2355,-173 699.2355,-173"/>
<polygon fill="#000000" stroke="#000000" points="699.2355,-176.5001 709.2355,-173 699.2355,-169.5001 699.2355,-176.5001"/>
</g>
<!-- StuffCustomMaterialModule -->
<g id="node8" class="node">
<title>StuffCustomMaterialModule</title>
<polygon fill="#8dd3c7" stroke="#000000" points="202.028,-122 199.028,-126 178.028,-126 175.028,-122 23.972,-122 23.972,-86 202.028,-86 202.028,-122"/>
<text text-anchor="middle" x="113" y="-99.8" font-family="Times,serif" font-size="14.00" fill="#000000">StuffCustomMaterialModule</text>
</g>
<!-- StuffCustomMaterialModule&#45;&gt;AppModule -->
<g id="edge7" class="edge">
<title>StuffCustomMaterialModule&#45;&gt;AppModule</title>
<path fill="none" stroke="#000000" d="M113,-122.0109C113,-144.4852 113,-180 113,-180 113,-180 699.139,-180 699.139,-180"/>
<polygon fill="#000000" stroke="#000000" points="699.1391,-183.5001 709.139,-180 699.139,-176.5001 699.1391,-183.5001"/>
</g>
<!-- AppServerModule&#45;&gt;AppComponent  -->
<g id="edge10" class="edge">
<title>AppServerModule&#45;&gt;AppComponent </title>
<path fill="none" stroke="#000000" stroke-dasharray="1,5" d="M1123.5595,-234C1123.5595,-234 958.4903,-234 958.4903,-234"/>
<polygon fill="#000000" stroke="#000000" points="958.4903,-230.5001 948.4903,-234 958.4902,-237.5001 958.4903,-230.5001"/>
</g>
</g>
</svg>
