<?xml version="1.0" encoding="UTF-8" standalone="no"?>
<!DOCTYPE svg PUBLIC "-//W3C//DTD SVG 1.1//EN"
 "http://www.w3.org/Graphics/SVG/1.1/DTD/svg11.dtd">
<!-- Generated by graphviz version 2.40.1 (20161225.0304)
 -->
<!-- Title: dependencies Pages: 1 -->
<svg width="511pt" height="284pt"
 viewBox="0.00 0.00 511.00 284.00" xmlns="http://www.w3.org/2000/svg" xmlns:xlink="http://www.w3.org/1999/xlink">
<g id="graph0" class="graph" transform="scale(1 1) rotate(0) translate(4 280)">
<title>dependencies</title>
<polygon fill="#ffffff" stroke="transparent" points="-4,4 -4,-280 507,-280 507,4 -4,4"/>
<text text-anchor="start" x="230.5091" y="-42.4" font-family="sans-serif" font-weight="bold" font-size="14.00" fill="#000000">Legend</text>
<polygon fill="#ffffb3" stroke="transparent" points="17.5,-10 17.5,-30 37.5,-30 37.5,-10 17.5,-10"/>
<text text-anchor="start" x="41.129" y="-15.4" font-family="sans-serif" font-size="14.00" fill="#000000"> &#160;Declarations</text>
<polygon fill="#8dd3c7" stroke="transparent" points="130.5,-10 130.5,-30 150.5,-30 150.5,-10 130.5,-10"/>
<text text-anchor="start" x="154.2251" y="-15.4" font-family="sans-serif" font-size="14.00" fill="#000000"> &#160;Module</text>
<polygon fill="#80b1d3" stroke="transparent" points="216.5,-10 216.5,-30 236.5,-30 236.5,-10 216.5,-10"/>
<text text-anchor="start" x="240.2812" y="-15.4" font-family="sans-serif" font-size="14.00" fill="#000000"> &#160;Bootstrap</text>
<polygon fill="#fdb462" stroke="transparent" points="313.5,-10 313.5,-30 333.5,-30 333.5,-10 313.5,-10"/>
<text text-anchor="start" x="337.1732" y="-15.4" font-family="sans-serif" font-size="14.00" fill="#000000"> &#160;Providers</text>
<polygon fill="#fb8072" stroke="transparent" points="409.5,-10 409.5,-30 429.5,-30 429.5,-10 409.5,-10"/>
<text text-anchor="start" x="433.2258" y="-15.4" font-family="sans-serif" font-size="14.00" fill="#000000"> &#160;Exports</text>
<g id="clust1" class="cluster">
<title>cluster_AppModule</title>
<polygon fill="none" stroke="#000000" stroke-dasharray="1,5" points="8,-70 8,-268 495,-268 495,-70 8,-70"/>
</g>
<g id="clust2" class="cluster">
<title>cluster_AppModule_declarations</title>
<polygon fill="none" stroke="#000000" points="365,-78 365,-130 487,-130 487,-78 365,-78"/>
</g>
<g id="clust4" class="cluster">
<title>cluster_AppModule_imports</title>
<polygon fill="none" stroke="#000000" points="16,-78 16,-130 357,-130 357,-78 16,-78"/>
</g>
<g id="clust6" class="cluster">
<title>cluster_AppModule_bootstrap</title>
<polygon fill="none" stroke="#000000" points="223,-208 223,-260 347,-260 347,-208 223,-208"/>
</g>
<!-- AppComponent -->
<g id="node1" class="node">
<title>AppComponent</title>
<polygon fill="#ffffb3" stroke="#000000" points="478.9399,-122 373.0601,-122 373.0601,-86 478.9399,-86 478.9399,-122"/>
<text text-anchor="middle" x="426" y="-99.8" font-family="Times,serif" font-size="14.00" fill="#000000">AppComponent</text>
</g>
<!-- AppModule -->
<g id="node2" class="node">
<title>AppModule</title>
<polygon fill="#8dd3c7" stroke="#000000" points="326.6571,-187 323.6571,-191 302.6571,-191 299.6571,-187 243.3429,-187 243.3429,-151 326.6571,-151 326.6571,-187"/>
<text text-anchor="middle" x="285" y="-164.8" font-family="Times,serif" font-size="14.00" fill="#000000">AppModule</text>
</g>
<!-- AppComponent&#45;&gt;AppModule -->
<g id="edge1" class="edge">
<title>AppComponent&#45;&gt;AppModule</title>
<path fill="none" stroke="#000000" d="M426,-122.1061C426,-141.3391 426,-169 426,-169 426,-169 336.9229,-169 336.9229,-169"/>
<polygon fill="#000000" stroke="#000000" points="336.9229,-165.5001 326.9229,-169 336.9229,-172.5001 336.9229,-165.5001"/>
</g>
<!-- AppComponent  -->
<g id="node5" class="node">
<title>AppComponent </title>
<polygon fill="#80b1d3" stroke="#000000" points="339.439,-252 230.561,-252 230.561,-216 339.439,-216 339.439,-252"/>
<text text-anchor="middle" x="285" y="-229.8" font-family="Times,serif" font-size="14.00" fill="#000000">AppComponent </text>
</g>
<!-- AppModule&#45;&gt;AppComponent  -->
<g id="edge4" class="edge">
<title>AppModule&#45;&gt;AppComponent </title>
<path fill="none" stroke="#000000" stroke-dasharray="1,5" d="M285,-187.1061C285,-187.1061 285,-205.991 285,-205.991"/>
<polygon fill="#000000" stroke="#000000" points="281.5001,-205.9909 285,-215.991 288.5001,-205.991 281.5001,-205.9909"/>
</g>
<!-- AppRoutingModule -->
<g id="node3" class="node">
<title>AppRoutingModule</title>
<polygon fill="#8dd3c7" stroke="#000000" points="349.2744,-122 346.2744,-126 325.2744,-126 322.2744,-122 220.7256,-122 220.7256,-86 349.2744,-86 349.2744,-122"/>
<text text-anchor="middle" x="285" y="-99.8" font-family="Times,serif" font-size="14.00" fill="#000000">AppRoutingModule</text>
</g>
<!-- AppRoutingModule&#45;&gt;AppModule -->
<g id="edge2" class="edge">
<title>AppRoutingModule&#45;&gt;AppModule</title>
<path fill="none" stroke="#000000" d="M285,-122.1061C285,-122.1061 285,-140.991 285,-140.991"/>
<polygon fill="#000000" stroke="#000000" points="281.5001,-140.9909 285,-150.991 288.5001,-140.991 281.5001,-140.9909"/>
</g>
<!-- StuffCustomMaterialModule -->
<g id="node4" class="node">
<title>StuffCustomMaterialModule</title>
<polygon fill="#8dd3c7" stroke="#000000" points="202.028,-122 199.028,-126 178.028,-126 175.028,-122 23.972,-122 23.972,-86 202.028,-86 202.028,-122"/>
<text text-anchor="middle" x="113" y="-99.8" font-family="Times,serif" font-size="14.00" fill="#000000">StuffCustomMaterialModule</text>
</g>
<!-- StuffCustomMaterialModule&#45;&gt;AppModule -->
<g id="edge3" class="edge">
<title>StuffCustomMaterialModule&#45;&gt;AppModule</title>
<path fill="none" stroke="#000000" d="M113,-122.1061C113,-141.3391 113,-169 113,-169 113,-169 232.9241,-169 232.9241,-169"/>
<polygon fill="#000000" stroke="#000000" points="232.9241,-172.5001 242.9241,-169 232.924,-165.5001 232.9241,-172.5001"/>
</g>
</g>
</svg>
