<?xml version="1.0" encoding="utf-8"?>
<!-- Generator: Adobe Illustrator 16.0.0, SVG Export Plug-In . SVG Version: 6.00 Build 0)  -->
<!DOCTYPE svg PUBLIC "-//W3C//DTD SVG 1.1//EN" "http://www.w3.org/Graphics/SVG/1.1/DTD/svg11.dtd">
<svg version="1.1" id="Layer_1" xmlns="http://www.w3.org/2000/svg"  x="0px" y="0px"
	 width="200px" height="200px" viewBox="0 0 200 200" enable-background="new 0 0 200 200" xml:space="preserve">
<path fill="#F2E627" d="M200,176c0,13.255-10.745,24-24,24H24c-13.255,0-24-10.745-24-24V24C0,10.745,10.745,0,24,0h152
	c13.255,0,24,10.745,24,24V176z"/>
<path fill-rule="evenodd" clip-rule="evenodd" fill="#FFFFFF" stroke="#000000" stroke-miterlimit="10" d="M158,93.5
	c-2.689-4.582-6.253-5.864-11.02-3.033c-0.689,0.409-1.641,0.416-2.481,0.525c-4.619,0.6-5.549-0.193-5.477-4.992
	c0.053-3.501,0.176-7.013,0.505-10.497c0.79-8.382-0.263-16.381-5.052-23.486c-8.863-13.147-21.464-17.858-36.983-16.614
	c-8.339,0.668-15.685,3.196-21.976,8.617c-6.71,5.782-10.676,12.883-11.672,21.964c-0.778,7.085,0.657,14.012,0.185,21.019
	c-0.266,3.935-0.135,3.876-4.028,4.023c-2.34,0.089-4.438-0.493-6.512-1.503c-1.611-0.784-3.426-0.872-4.969,0.013
	c-3.912,2.241-4.04,4.479-0.508,7.449c1.444,1.215,3.145,2.041,4.989,2.509c0.822,0.208,1.724,0.202,2.489,0.528
	c7.992,3.398,9.57,5.959,5.437,13.941c-4.126,7.967-10.055,14.521-17.957,18.985c-2.647,1.495-5.563,2.665-8.501,3.437
	c-1.522,0.399-3.262,0.326-3.356,2.121c-0.063,1.22,1.13,2.31,2.378,3.009c2.699,1.512,5.552,2.672,8.524,3.425
	c1.479,0.375,3.195,0.851,4.484,0.851c3.25-0.001,3.977,1.682,4.537,4.202c0.388,1.744-0.047,4.232,2.002,4.887
	c1.814,0.579,4.118,0.613,5.934,0.035c7.543-2.402,14.203-0.531,20.524,3.59c4.325,2.819,8.309,5.962,13.452,7.651
	c8.739,2.871,16.515,1.473,24.044-3.166c2.873-1.77,5.648-3.696,8.513-5.48c5.574-3.473,11.635-4.426,17.972-2.915
	c1.212,0.289,2.458-0.007,3.503,0.45c2.763,1.207,3.679-0.156,4.63-2.499c0.486-1.198,0.511-2.454,0.732-3.576
	c0.404-2.039,1.01-2.972,3.157-3.001c3.659-0.052,6.963-1.81,10.505-2.438c2.111-0.375,3.463-1.881,4.952-3.084
	c1.912-1.544,1.448-3.438-0.965-3.904c-8.281-1.601-14.951-5.895-20.464-12.067c-3.216-3.599-5.9-7.601-8.049-11.964
	c-2.947-5.984-1.682-9.492,4.529-11.484c4.545-1.459,8.938-3.068,11.991-7.026"/>
<path fill-rule="evenodd" clip-rule="evenodd" d="M61.626,75.955C60.163,60.933,64.745,49.011,76.62,40.48
	c17.103-12.287,44.782-9.925,58.294,8.277c5.896,7.944,7.411,16.946,6.847,26.423c-0.207,3.491-0.307,6.979-0.357,10.465
	c-0.044,3.004,0.618,3.488,3.604,2.978c1.294-0.221,2.567-0.689,3.783-1.203c2.167-0.914,4.228-0.653,6.277,0.301
	c5.744,2.674,6.249,7.237,1.227,11.138c-2.688,2.088-5.943,2.916-9.055,4.081c-5.457,2.043-6.352,4.332-3.539,9.521
	c5.855,10.802,13.878,19.108,26.323,22.027c2.13,0.5,3.876,1.269,4.231,3.562c0.352,2.273-1.205,3.719-2.815,4.941
	c-3.408,2.587-7.464,3.644-11.556,4.39c-3.312,0.604-5.655,1.545-6.379,5.498c-0.725,3.961-2.387,4.698-6.515,4.483
	c-2.982-0.156-5.857-1.014-8.899-1.037c-4.871-0.037-9.165,1.312-13.125,4.012c-2.339,1.594-4.636,3.256-7.039,4.745
	c-10.793,6.688-21.665,6.603-32.512,0.147c-2.429-1.445-4.781-3.048-7.03-4.759c-5.438-4.138-11.604-4.599-18.048-3.796
	c-1.15,0.144-2.272,0.544-3.424,0.656c-4.932,0.481-6.214-0.235-7.44-5.104c-0.71-2.819-2.181-4.223-4.932-4.681
	c-1.962-0.326-3.905-0.801-5.826-1.323c-2.419-0.659-4.753-1.588-6.776-3.094c-1.76-1.31-3.527-2.848-2.977-5.323
	c0.488-2.194,2.374-2.956,4.451-3.449c11.092-2.636,18.645-9.865,24.456-19.212c4.909-7.895,4.045-10.113-4.764-13.305
	c-1.867-0.677-3.768-1.397-5.445-2.433c-3.513-2.167-4.837-5.137-3.807-7.844c1.19-3.129,5.488-5.133,9.193-4.243
	c1.774,0.426,3.509,1.031,5.293,1.395c2.289,0.466,3.537-0.438,3.329-2.921c-0.041-0.497-0.04-0.999-0.041-1.498
	C61.624,81.3,61.626,78.303,61.626,75.955z M65.721,78.002c0.146,2.927,0.273,5.422,0.393,7.918
	c0.023,0.499,0.024,0.999,0.025,1.499c0.003,4.08-1.146,5.33-5.144,5.687c-2.568,0.229-4.962-0.485-7.301-1.362
	c-1.454-0.545-2.852-0.938-4.35-0.322c-2.049,0.844-2.263,2.279-0.479,3.694c1.718,1.364,3.752,2.157,5.845,2.72
	c2.111,0.567,4.118,1.351,5.955,2.514c4.246,2.688,5.354,6.006,3.603,10.679c-0.408,1.088-0.861,2.171-1.408,3.194
	c-6.131,11.468-14.721,20.077-27.605,23.681c-0.575,0.161-1.485,0.05-1.579,0.773c-0.092,0.711,0.712,1.021,1.284,1.364
	c3.658,2.191,7.82,2.903,11.885,3.587c3.265,0.549,4.985,1.904,5.794,5.12c1.173,4.664,1.354,4.684,6.044,3.789
	c8.074-1.539,15.559-0.427,22.279,4.589c1.732,1.293,3.557,2.467,5.381,3.629c10.168,6.476,20.353,6.328,30.505-0.026
	c2.398-1.502,4.717-3.13,7.078-4.691c3.852-2.546,8.109-3.727,12.701-4c3.039-0.18,6.001,0.237,8.921,0.864
	c2.749,0.591,4.313,0.279,4.626-3.055c0.372-3.976,2.741-5.917,6.956-6.343c3.748-0.378,7.568-1.24,10.898-3.333
	c0.551-0.347,1.324-0.598,1.311-1.35c-0.017-0.954-0.95-0.632-1.491-0.786c-13.612-3.896-22.449-13.15-28.446-25.498
	c-2.963-6.1-1.477-9.987,4.716-12.938c1.495-0.712,3.112-1.161,4.651-1.785c1.536-0.623,3.118-1.188,4.542-2.016
	c1.059-0.616,2.646-1.34,1.979-2.938c-0.529-1.266-1.939-1.718-3.361-1.778c-1.027-0.044-1.948,0.274-2.903,0.599
	c-1.571,0.533-3.166,1.104-4.797,1.343c-5.201,0.763-7.481-1.249-7.206-6.484c0.313-5.983,0.867-11.945,0.617-17.959
	c-0.31-7.453-2.763-13.995-7.743-19.532c-9.748-10.835-22.181-13.263-35.975-11.365c-12.86,1.771-27.863,12.479-28.407,31.275
	C65.421,72.131,65.438,75.28,65.721,78.002z"/>
<path fill-rule="evenodd" clip-rule="evenodd" d="M106.401,17.031c-1.771,0.111-3.893-1.835-4.006-3.674
	c-0.124-2.002,1.562-3.867,3.573-3.955c1.912-0.083,3.937,1.686,4.075,3.562C110.173,14.698,108.184,16.919,106.401,17.031z"/>
<path fill-rule="evenodd" clip-rule="evenodd" d="M75.143,164.358c1.759,0.051,3.862,2.156,3.871,3.874
	c0.008,1.743-2.116,3.839-3.872,3.819c-1.832-0.021-3.784-2.022-3.781-3.878C71.362,166.226,73.267,164.305,75.143,164.358z"/>
<path fill-rule="evenodd" clip-rule="evenodd" d="M172.023,168.182c0.069,1.761-2,3.881-3.783,3.876
	c-1.708-0.005-3.818-2.096-3.888-3.852c-0.073-1.894,1.828-3.831,3.759-3.827C169.879,164.382,171.953,166.397,172.023,168.182z"/>
<path fill-rule="evenodd" clip-rule="evenodd" d="M188.573,133.511c2.201-0.101,3.832,1.409,3.899,3.609
	c0.062,2.025-1.754,4.032-3.708,3.871c-2.06-0.17-3.343-1.505-3.744-3.456C184.646,135.714,186.637,133.599,188.573,133.511z"/>
<path fill-rule="evenodd" clip-rule="evenodd" d="M37.579,126.855c0.054,1.972-1.702,3.655-3.821,3.663
	c-1.874,0.008-3.853-1.902-3.866-3.73c-0.013-1.729,2.122-3.829,3.872-3.809C35.518,123,37.529,125.044,37.579,126.855z"/>
<path fill-rule="evenodd" clip-rule="evenodd" d="M13.132,130.602c-1.999,0.019-3.782-1.726-3.797-3.713
	c-0.015-1.901,1.87-3.833,3.739-3.833c1.738,0,3.835,2.054,3.873,3.793C16.986,128.69,15.062,130.584,13.132,130.602z"/>
<path fill-rule="evenodd" clip-rule="evenodd" d="M13.403,91.94c1.683,0.135,3.665,2.459,3.526,4.136
	c-0.147,1.782-2.312,3.625-4.111,3.499c-1.959-0.137-3.638-2.092-3.465-4.036C9.512,93.748,11.701,91.804,13.403,91.94z"/>
<path fill-rule="evenodd" clip-rule="evenodd" d="M189.013,71.408c2.045,0.094,3.563,1.817,3.477,3.946
	c-0.078,1.927-2.022,3.778-3.855,3.673c-1.647-0.096-3.679-2.377-3.621-4.068C185.075,73.115,187.097,71.321,189.013,71.408z"/>
<path fill-rule="evenodd" clip-rule="evenodd" d="M188.84,60.984c1.964,0.028,3.729,1.963,3.628,3.974
	c-0.11,2.194-1.782,3.704-3.972,3.525c-2.198-0.179-3.216-1.662-3.472-3.614C184.797,63.123,187.066,60.959,188.84,60.984z"/>
<path fill-rule="evenodd" clip-rule="evenodd" d="M172.049,33.485c0.122,1.674-1.867,3.961-3.602,4.143
	c-1.886,0.197-3.915-1.556-4.057-3.506c-0.128-1.747,1.739-3.955,3.52-4.163C169.632,29.758,171.919,31.706,172.049,33.485z"/>
<path fill-rule="evenodd" clip-rule="evenodd" d="M136.913,9.408c1.934-0.111,3.889,1.563,4.078,3.49
	c0.17,1.733-1.71,3.87-3.572,4.06c-1.858,0.189-3.812-1.588-3.91-3.556C133.399,11.22,134.844,9.526,136.913,9.408z"/>
<path fill-rule="evenodd" clip-rule="evenodd" d="M71.372,12.924c0.127-2.021,1.945-3.646,3.954-3.532
	c1.908,0.108,3.768,2.125,3.629,3.935c-0.134,1.748-2.339,3.713-4.048,3.609C73.001,16.821,71.253,14.837,71.372,12.924z"/>
<path fill-rule="evenodd" clip-rule="evenodd" d="M141.021,23.438c-0.003,1.849-2.063,3.834-3.95,3.806
	c-2.029-0.031-3.701-1.886-3.534-3.998c0.168-2.133,1.41-3.337,3.496-3.516C138.939,19.565,141.022,21.592,141.021,23.438z"/>
<path fill-rule="evenodd" clip-rule="evenodd" d="M16.993,85.568c-0.045,1.799-2.1,3.724-3.95,3.7
	c-1.965-0.024-3.632-1.829-3.582-3.875c0.052-2.111,1.749-3.78,3.754-3.693C15.081,81.782,17.039,83.787,16.993,85.568z"/>
<path fill-rule="evenodd" clip-rule="evenodd" d="M33.747,89.277c-1.818-0.027-3.885-2.053-3.873-3.796
	c0.012-1.75,2.072-3.732,3.911-3.762c1.925-0.031,3.757,1.817,3.752,3.787C37.532,87.452,35.668,89.307,33.747,89.277z"/>
<path fill-rule="evenodd" clip-rule="evenodd" d="M192.477,85.266c0.121,2.075-1.432,3.87-3.462,4.002
	c-1.825,0.118-3.938-1.726-4.07-3.55c-0.122-1.701,1.831-3.855,3.641-4.016C190.521,81.53,192.355,83.211,192.477,85.266z"/>
<path fill-rule="evenodd" clip-rule="evenodd" d="M126.699,164.376c1.948-0.129,3.716,1.611,3.764,3.704
	c0.043,1.874-1.788,3.896-3.599,3.975c-1.754,0.077-3.924-1.962-3.946-3.706C122.896,166.676,124.979,164.489,126.699,164.376z"/>
<path fill-rule="evenodd" clip-rule="evenodd" d="M27.261,106.129c0.026,1.835-2.039,3.936-3.854,3.921
	c-1.837-0.015-3.875-2.13-3.696-3.998c0.199-2.083,1.39-3.345,3.531-3.508C25.269,102.391,27.234,104.183,27.261,106.129z"/>
<path fill-rule="evenodd" clip-rule="evenodd" d="M172.02,106.125c0.106,1.739-1.902,3.886-3.685,3.938
	c-1.689,0.05-3.85-1.98-3.967-3.729c-0.131-1.953,1.595-3.741,3.661-3.793C169.902,102.493,171.908,104.294,172.02,106.125z"/>
<path fill-rule="evenodd" clip-rule="evenodd" d="M182.295,106.085c0.028,1.91-1.932,3.957-3.791,3.96
	c-1.868,0.002-3.943-2.079-3.749-3.954c0.212-2.046,1.388-3.357,3.519-3.546C180.362,102.36,182.265,104.081,182.295,106.085z"/>
<path fill-rule="evenodd" clip-rule="evenodd" d="M13.248,112.727c1.848,0.091,3.816,2.148,3.736,3.906
	c-0.083,1.816-2.121,3.695-3.976,3.667c-2.017-0.032-3.596-1.768-3.545-3.896C9.514,114.322,11.256,112.629,13.248,112.727z"/>
<path fill-rule="evenodd" clip-rule="evenodd" d="M37.478,168.371c-0.103,1.831-2.186,3.775-3.939,3.678
	c-1.743-0.098-3.781-2.37-3.623-4.041c0.164-1.725,2.361-3.677,4.078-3.621C35.979,164.45,37.593,166.297,37.478,168.371z"/>
<path fill-rule="evenodd" clip-rule="evenodd" d="M33.844,120.28c-1.839,0.004-3.912-1.933-3.96-3.701
	c-0.048-1.742,1.979-3.799,3.804-3.859c1.909-0.062,3.807,1.772,3.843,3.717C37.569,118.411,35.78,120.276,33.844,120.28z"/>
<path fill-rule="evenodd" clip-rule="evenodd" d="M44.232,120.288c-2.022,0.079-3.855-1.713-3.759-3.814s1.265-3.413,3.353-3.707
	c1.876-0.265,4.015,1.639,4.142,3.54C48.09,118.133,46.138,120.214,44.232,120.288z"/>
<path fill-rule="evenodd" clip-rule="evenodd" d="M48.024,23.482c-0.02,1.845-2.108,3.806-4.014,3.767
	c-2.029-0.041-3.736-1.937-3.504-4.034c0.229-2.068,1.376-3.382,3.536-3.497C45.927,19.618,48.043,21.688,48.024,23.482z"/>
<path fill-rule="evenodd" clip-rule="evenodd" d="M23.281,130.514c-2.087-0.094-3.733-1.855-3.593-3.846
	c0.134-1.899,2.163-3.784,3.942-3.664c1.838,0.125,3.717,2.199,3.631,4.009C27.168,128.974,25.313,130.605,23.281,130.514z"/>
<path fill-rule="evenodd" clip-rule="evenodd" d="M37.467,23.223c0.118,1.99-1.512,3.893-3.462,4.041
	c-1.799,0.136-3.908-1.704-4.073-3.554c-0.155-1.736,1.753-3.863,3.593-4.006C35.51,19.55,37.346,21.189,37.467,23.223z"/>
<path fill-rule="evenodd" clip-rule="evenodd" d="M168.131,122.995c1.698-0.066,3.883,2.004,3.924,3.719
	c0.042,1.754-1.949,3.719-3.81,3.758c-2.069,0.043-3.897-1.638-3.888-3.574C164.367,125.133,166.368,123.063,168.131,122.995z"/>
<path fill-rule="evenodd" clip-rule="evenodd" d="M182.294,127.049c-0.104,1.958-1.979,3.581-4.004,3.467
	c-1.971-0.11-3.72-2.042-3.564-3.936c0.152-1.856,2.249-3.725,4.02-3.583C180.606,123.146,182.393,125.187,182.294,127.049z"/>
<path fill-rule="evenodd" clip-rule="evenodd" d="M13.778,133.638c1.688,0.184,2.912,1.414,3.123,3.447
	c0.188,1.809-1.986,3.944-3.752,3.926c-1.919-0.021-3.808-1.967-3.777-3.891C9.405,135.07,11.194,133.495,13.778,133.638z"/>
<path fill-rule="evenodd" clip-rule="evenodd" d="M16.975,147.329c0.119,1.819-1.715,3.826-3.632,3.972
	c-1.995,0.151-3.762-1.48-3.863-3.567c-0.101-2.071,1.487-3.905,3.462-4C14.773,143.646,16.855,145.502,16.975,147.329z"/>
<path fill-rule="evenodd" clip-rule="evenodd" d="M23.239,161.467c-2.169-0.121-3.815-1.93-3.52-3.991
	c0.301-2.1,1.729-3.226,3.703-3.468c1.795-0.221,3.834,1.997,3.822,3.889C27.232,159.881,25.322,161.584,23.239,161.467z"/>
<path fill-rule="evenodd" clip-rule="evenodd" d="M48.021,157.709c0.04,1.82-1.997,3.819-3.905,3.743
	c-2.096-0.084-3.454-1.127-3.679-3.288c-0.194-1.86,1.685-3.994,3.547-4.157C45.711,153.854,47.981,155.938,48.021,157.709z"/>
<path fill-rule="evenodd" clip-rule="evenodd" d="M99.372,189.186c-0.099,1.788-1.135,3.115-3.266,3.377
	c-1.938,0.237-3.995-1.528-4.185-3.474c-0.167-1.706,1.886-4.02,3.653-4.116C97.357,184.875,99.329,186.898,99.372,189.186z"/>
<path fill-rule="evenodd" clip-rule="evenodd" d="M182.292,34.017c-0.087,1.968-1.956,3.608-3.986,3.499
	c-1.979-0.107-3.719-2.013-3.591-3.934c0.123-1.852,2.196-3.718,4.012-3.611C180.545,30.078,182.375,32.154,182.292,34.017z"/>
<path fill-rule="evenodd" clip-rule="evenodd" d="M27.244,44.075c0.029,1.887-1.965,3.946-3.817,3.943
	c-1.857-0.003-3.847-2.063-3.718-3.976c0.145-2.14,1.408-3.31,3.51-3.496C25.296,40.362,27.213,42.089,27.244,44.075z"/>
<path fill-rule="evenodd" clip-rule="evenodd" d="M64.835,185.037c1.804,0.327,3.282,1.186,3.532,3.362
	c0.252,2.18-1.199,4.011-3.276,4.178c-1.956,0.158-3.985-1.561-4.136-3.503C60.818,187.308,62.805,185.16,64.835,185.037z"/>
<path fill-rule="evenodd" clip-rule="evenodd" d="M172.022,44.225c0.016,1.747-2.229,3.886-3.961,3.773
	c-1.796-0.117-3.855-2.33-3.648-4.081c0.248-2.094,1.508-3.267,3.637-3.372C169.964,40.449,172.005,42.375,172.022,44.225z"/>
<path fill-rule="evenodd" clip-rule="evenodd" d="M174.737,44.043c0.061-2.015,1.956-3.692,4.043-3.502
	c2.123,0.194,3.336,1.43,3.49,3.528c0.136,1.851-1.967,3.974-3.768,3.975C176.711,48.045,174.683,45.89,174.737,44.043z"/>
<path fill-rule="evenodd" clip-rule="evenodd" d="M54.522,192.546c-2.105,0.029-3.832-1.616-3.821-3.641
	c0.011-1.911,1.896-3.905,3.708-3.921c1.79-0.015,3.799,1.965,3.863,3.809C58.341,190.74,56.566,192.517,54.522,192.546z"/>
<path fill-rule="evenodd" clip-rule="evenodd" d="M33.749,58.283c-1.852-0.052-3.895-2.068-3.872-3.821
	c0.023-1.774,2.094-3.756,3.921-3.752c2.016,0.004,3.764,1.781,3.741,3.805C37.518,56.524,35.695,58.337,33.749,58.283z"/>
<path fill-rule="evenodd" clip-rule="evenodd" d="M172.038,178.392c0.104,1.763-1.805,3.774-3.71,3.908
	c-1.971,0.139-3.771-1.555-3.849-3.621c-0.073-1.965,1.652-3.867,3.583-3.948C169.854,174.655,171.93,176.566,172.038,178.392z"/>
<path fill-rule="evenodd" clip-rule="evenodd" d="M161.488,54.437c0.008,2.052-1.699,3.85-3.648,3.843
	c-1.788-0.007-3.9-2.019-3.932-3.745c-0.032-1.753,1.991-3.764,3.842-3.817C159.767,50.658,161.481,52.365,161.488,54.437z"/>
<path fill-rule="evenodd" clip-rule="evenodd" d="M141.021,178.56c0.004,1.846-2.08,3.875-3.986,3.71
	c-2.084-0.18-3.326-1.385-3.497-3.517c-0.168-2.099,1.512-3.966,3.531-3.997C138.955,174.728,141.017,176.711,141.021,178.56z"/>
<path fill-rule="evenodd" clip-rule="evenodd" d="M37.455,64.893c-0.051,2.134-1.789,3.726-3.93,3.6
	c-1.874-0.11-3.96-2.307-3.594-4.03c0.415-1.948,1.729-3.259,3.762-3.457C35.513,60.827,37.5,63.004,37.455,64.893z"/>
<path fill-rule="evenodd" clip-rule="evenodd" d="M47.996,178.369c0.112,1.798-1.888,3.93-3.805,3.912
	c-2.163-0.021-3.363-1.283-3.666-3.351c-0.308-2.091,1.311-4.051,3.337-4.181C45.753,174.628,47.879,176.489,47.996,178.369z"/>
<path fill-rule="evenodd" clip-rule="evenodd" d="M151.294,65.049c-0.106,1.991-1.935,3.545-4.027,3.423
	c-2.058-0.12-3.734-1.952-3.564-3.895c0.165-1.891,2.225-3.72,4.031-3.581C149.599,61.139,151.394,63.183,151.294,65.049z"/>
<path fill-rule="evenodd" clip-rule="evenodd" d="M85.594,17.004c-1.742,0.086-3.789-1.882-3.894-3.746
	c-0.112-2.001,1.547-3.719,3.659-3.792c2.055-0.07,3.867,1.576,3.908,3.549C89.307,14.858,87.413,16.914,85.594,17.004z"/>
<path fill-rule="evenodd" clip-rule="evenodd" d="M23.191,78.978c-1.845-0.146-3.609-2.211-3.497-4.093
	c0.119-2,1.946-3.542,4.029-3.399c1.981,0.136,3.726,2.075,3.552,3.949C27.111,77.216,24.921,79.116,23.191,78.978z"/>
<path fill-rule="evenodd" clip-rule="evenodd" d="M58.273,75.216c-0.07,1.843-2.1,3.853-3.853,3.815
	c-1.827-0.039-3.704-2.021-3.72-3.929c-0.017-2.028,1.712-3.676,3.822-3.645C56.592,71.488,58.349,73.248,58.273,75.216z"/>
<path fill-rule="evenodd" clip-rule="evenodd" d="M147.425,79.028c-1.841-0.047-3.731-2.042-3.719-3.924
	c0.014-1.969,1.834-3.68,3.872-3.638c2.039,0.041,3.795,1.833,3.719,3.793C151.224,77.142,149.238,79.074,147.425,79.028z"/>
<path fill-rule="evenodd" clip-rule="evenodd" d="M151.293,168.064c0.036,1.87-1.833,3.91-3.657,3.993
	c-1.783,0.08-3.827-1.843-3.944-3.711c-0.119-1.898,1.672-3.783,3.679-3.871C149.394,164.387,151.255,166.09,151.293,168.064z"/>
<path fill-rule="evenodd" clip-rule="evenodd" d="M178.448,71.464c2.03-0.028,3.838,1.687,3.846,3.649
	c0.007,1.875-1.878,3.864-3.71,3.916c-1.756,0.049-3.794-1.945-3.854-3.772C174.665,73.325,176.463,71.491,178.448,71.464z"/>
<path fill-rule="evenodd" clip-rule="evenodd" d="M64.669,172.035c-1.802,0.001-3.82-2.188-3.673-3.984
	c0.148-1.815,2.327-3.83,4.089-3.621c2.104,0.249,3.228,1.541,3.282,3.666C68.418,170.045,66.515,172.034,64.669,172.035z"/>
<path fill-rule="evenodd" clip-rule="evenodd" d="M157.519,172.052c-1.812-0.143-3.742-2.44-3.507-4.174
	c0.25-1.84,2.479-3.702,4.26-3.411c2.098,0.344,3.146,1.697,3.1,3.815C161.326,170.259,159.307,172.193,157.519,172.052z"/>
<path fill-rule="evenodd" clip-rule="evenodd" d="M161.357,12.531c0.136,2.323-1.629,4.374-3.475,4.399
	c-1.771,0.024-3.936-2.071-3.926-3.801c0.01-1.847,2.015-3.788,3.938-3.708C160.057,9.512,161.133,10.792,161.357,12.531z"/>
<path fill-rule="evenodd" clip-rule="evenodd" d="M192.402,157.992c0.035,1.869-1.023,3.186-3.096,3.542
	c-1.982,0.341-4.491-1.871-4.294-3.844c0.203-2.027,1.533-3.308,3.493-3.661C190.281,153.709,192.278,155.731,192.402,157.992z"/>
<path fill-rule="evenodd" clip-rule="evenodd" d="M157.646,185.05c1.819-0.116,3.769,1.854,3.725,3.846
	c-0.046,2.104-1.1,3.429-3.241,3.67c-1.929,0.217-4.001-1.554-4.166-3.456C153.812,187.372,155.813,185.166,157.646,185.05z"/>
<path fill-rule="evenodd" clip-rule="evenodd" d="M161.364,34.398c-0.193,1.725-1.257,3.034-3.411,3.153
	c-1.826,0.102-3.926-1.959-3.97-3.75c-0.044-1.802,2.065-3.906,3.854-3.846C159.644,30.015,161.451,32.101,161.364,34.398z"/>
<path fill-rule="evenodd" clip-rule="evenodd" d="M44.104,60.993c1.729-0.045,3.981,2.101,3.787,3.864
	c-0.218,1.985-1.4,3.305-3.494,3.511c-2.14,0.211-3.936-1.379-3.983-3.438C40.368,63.014,42.217,61.042,44.104,60.993z"/>
<path fill-rule="evenodd" clip-rule="evenodd" d="M172.042,64.862c-0.074,1.83-2.156,3.637-4.11,3.502
	c-2.127-0.147-3.367-1.336-3.521-3.447c-0.133-1.8,1.992-3.904,3.793-3.929C170.018,60.964,172.115,63.08,172.042,64.862z"/>
<path fill-rule="evenodd" clip-rule="evenodd" d="M157.846,19.689c1.933,0.099,3.195,1.181,3.498,3.274
	c0.299,2.063-1.245,4.076-3.197,4.261c-1.832,0.174-4.012-1.672-4.152-3.518C153.854,21.888,155.742,19.829,157.846,19.689z"/>
<path fill-rule="evenodd" clip-rule="evenodd" d="M161.378,75.132c-0.011,1.954-1.93,3.951-3.736,3.889
	c-1.767-0.061-3.95-2.317-3.652-4.031c0.334-1.921,1.399-3.354,3.579-3.47C159.769,71.403,161.391,72.963,161.378,75.132z"/>
<path fill-rule="evenodd" clip-rule="evenodd" d="M99.373,23.341c0.083,2.052-1.664,3.948-3.624,3.932
	c-1.849-0.015-4.025-2.104-3.81-3.893c0.242-2.014,1.536-3.293,3.542-3.626C97.438,19.429,99.286,21.208,99.373,23.341z"/>
<path fill-rule="evenodd" clip-rule="evenodd" d="M37.456,157.924c-0.032,2.155-1.757,3.771-3.911,3.54
	c-2.091-0.225-3.269-1.585-3.564-3.553c-0.263-1.751,1.954-3.939,3.748-3.936C35.544,153.98,37.484,156.035,37.456,157.924z"/>
<path fill-rule="evenodd" clip-rule="evenodd" d="M161.38,105.793c-0.021,2.295-1.914,4.268-3.733,4.243
	c-1.759-0.024-3.798-2.26-3.652-4.005c0.158-1.886,2.209-3.646,4.104-3.47C160.254,102.763,161.282,104.039,161.38,105.793z"/>
<path fill-rule="evenodd" clip-rule="evenodd" d="M27.236,116.681c-0.114,1.811-2.302,3.71-4.108,3.567
	c-1.933-0.152-3.726-2.256-3.399-4.143c0.356-2.059,1.78-3.158,3.763-3.327C25.287,112.625,27.349,114.909,27.236,116.681z"/>
<path fill-rule="evenodd" clip-rule="evenodd" d="M157.829,48.005c-1.781,0.072-4.029-2.025-3.811-3.796
	c0.239-1.937,1.311-3.374,3.403-3.656c2.109-0.284,3.863,1.274,3.949,3.408C161.449,45.882,159.654,47.931,157.829,48.005z"/>
<path fill-rule="evenodd" clip-rule="evenodd" d="M58.237,23.321c0.106,1.747-1.978,3.937-3.748,3.939
	c-1.779,0.002-3.895-2.1-3.763-3.913c0.149-2.064,1.355-3.349,3.416-3.595C55.947,19.537,58.129,21.529,58.237,23.321z"/>
<path fill-rule="evenodd" clip-rule="evenodd" d="M23.5,19.723c1.854,0.091,3.846,2.203,3.716,3.94
	c-0.138,1.843-2.356,3.853-4.093,3.503c-1.94-0.391-3.231-1.651-3.406-3.689C19.554,21.586,21.621,19.63,23.5,19.723z"/>
<path fill-rule="evenodd" clip-rule="evenodd" d="M161.384,64.835c-0.057,1.944-1.001,3.273-3.164,3.512
	c-1.906,0.21-4.041-1.458-4.238-3.268c-0.187-1.71,1.771-3.98,3.539-4.103C159.295,60.854,161.295,62.782,161.384,64.835z"/>
<path fill-rule="evenodd" clip-rule="evenodd" d="M23.302,182.282c-1.894-0.029-3.832-2.092-3.562-3.956
	c0.292-2.017,1.605-3.245,3.58-3.518c1.742-0.239,3.916,1.949,3.925,3.728C27.254,180.278,25.115,182.311,23.302,182.282z"/>
<path fill-rule="evenodd" clip-rule="evenodd" d="M54.072,182.283c-1.787-0.295-3.1-1.389-3.335-3.462
	c-0.206-1.821,1.753-3.953,3.584-4.058c1.755-0.101,3.943,1.98,3.94,3.747C58.259,180.264,56.131,182.295,54.072,182.283z"/>
<path fill-rule="evenodd" clip-rule="evenodd" d="M85.396,174.753c1.775-0.063,3.9,2.043,3.854,3.821
	c-0.046,1.784-2.182,3.853-3.99,3.68c-2.049-0.197-3.322-1.426-3.525-3.489C81.557,176.958,83.606,174.818,85.396,174.753z"/>
<path fill-rule="evenodd" clip-rule="evenodd" d="M58.249,54.404c0.051,1.766-2.077,3.895-3.843,3.845
	c-1.795-0.052-3.859-2.188-3.684-3.983c0.202-2.063,1.459-3.308,3.51-3.516C56.046,50.565,58.197,52.621,58.249,54.404z"/>
<path fill-rule="evenodd" clip-rule="evenodd" d="M23.142,50.731c1.814-0.11,3.984,1.795,4.094,3.593
	c0.105,1.747-1.983,3.94-3.75,3.937c-1.752-0.003-3.807-2.128-3.795-3.923C19.703,52.596,21.385,50.838,23.142,50.731z"/>
<path fill-rule="evenodd" clip-rule="evenodd" d="M182.286,147.481c0.067,1.828-1.963,3.939-3.803,3.756
	c-2.014-0.202-3.315-1.441-3.674-3.425c-0.313-1.742,1.715-3.955,3.534-4.052C180.105,143.668,182.219,145.662,182.286,147.481z"/>
<path fill-rule="evenodd" clip-rule="evenodd" d="M178.809,50.754c1.916,0.147,3.783,2.285,3.414,4.088
	c-0.403,1.971-1.724,3.198-3.72,3.385c-1.767,0.165-3.835-2.112-3.742-3.882C174.855,52.524,177.008,50.616,178.809,50.754z"/>
<path fill-rule="evenodd" clip-rule="evenodd" d="M178.532,182.271c-1.786-0.004-3.841-2.105-3.78-3.868
	c0.062-1.793,2.25-3.88,3.979-3.604c1.979,0.315,3.23,1.599,3.496,3.587C182.457,180.115,180.298,182.276,178.532,182.271z"/>
<path fill-rule="evenodd" clip-rule="evenodd" d="M182.258,23.594c-0.088,1.809-2.24,3.772-3.985,3.636
	c-1.827-0.143-3.804-2.365-3.455-4.088c0.395-1.953,1.694-3.196,3.696-3.386C180.253,19.59,182.342,21.85,182.258,23.594z"/>
</svg>
